<?xml version="1.0" encoding="utf-8"?>
<!-- Generator: Adobe Illustrator 22.1.0, SVG Export Plug-In . SVG Version: 6.00 Build 0)  -->
<svg version="1.1" id="Layer_1" xmlns="http://www.w3.org/2000/svg" xmlns:xlink="http://www.w3.org/1999/xlink" x="0px" y="0px"
	 viewBox="0 0 700 700" style="enable-background:new 0 0 700 700;" xml:space="preserve">
<style type="text/css">
	.st0{opacity:0.42;fill:url(#SVGID_1_);}
	.st1{opacity:0.43;fill:#CEE5ED;}
	.st2{fill:#AAC6CE;}
	.st3{fill:#85B0BA;}
	.st4{fill:#1D1852;}
	.st5{fill:#F5D609;}
	.st6{fill:#EFDB78;}
	.st7{fill:#EA9249;}
	.st8{fill:#4C4C4C;}
	.st9{fill:#F2BF75;}
	.st10{fill:#292870;}
	.st11{opacity:0.67;fill:#EA9249;}
	.st12{fill:#606060;}
	.st13{fill:#1D1851;}
	.st14{fill:#26245B;}
</style>
<g>
	<linearGradient id="SVGID_1_" gradientUnits="userSpaceOnUse" x1="348.4848" y1="571.207" x2="348.4848" y2="-110.9376">
		<stop  offset="0" style="stop-color:#FFFFFF"/>
		<stop  offset="9.162324e-02" style="stop-color:#FFFEF8"/>
		<stop  offset="0.2223" style="stop-color:#FEFBE6"/>
		<stop  offset="0.3764" style="stop-color:#FCF5C7"/>
		<stop  offset="0.5485" style="stop-color:#FAEE9C"/>
		<stop  offset="0.7354" style="stop-color:#F7E465"/>
		<stop  offset="0.9318" style="stop-color:#F4D823"/>
		<stop  offset="1" style="stop-color:#F3D40A"/>
	</linearGradient>
	<path class="st0" d="M157.7,618.3h381.5c85-58.6,140.6-155.3,140.6-264.7c0-178.8-148.4-349.5-331.4-349.5
		c-183,0-331.4,170.7-331.4,349.5C17.1,463,72.7,559.6,157.7,618.3z"/>
	<ellipse class="st1" cx="348.5" cy="619.2" rx="349.2" ry="13.8"/>
	<g>
		<rect x="218.6" y="453.6" class="st2" width="15.9" height="151.9"/>
		<rect x="218.6" y="453.6" class="st3" width="15.9" height="21.4"/>
		<path class="st2" d="M302.5,605.6H155.6c-1.3,0-2.3,1.1-2.3,2.3v11.6h151.6v-11.6C304.9,606.6,303.8,605.6,302.5,605.6z"/>
		<path class="st2" d="M188.9,453.7H299c-40.1-14.4-24.6-149.9-17.2-201.3c1.5-10.4-6.5-19.6-17-19.6l-73.3,0
			c-15,0-27.7,11.1-29.8,25.9c-6.4,46.7-16.6,143.5,3.5,181C169.9,448.4,179.1,453.7,188.9,453.7z"/>
	</g>
	<g>
		<g>
			<polygon class="st4" points="323.7,583.1 322.1,593.8 330.3,604.3 351,594.2 353.3,584.3 327.5,580.4 			"/>
			<path class="st4" d="M340.4,617.7l2.1-2.7c0.4-0.5,1.1-0.5,1.5,0l2.1,2.5c0.9,1,2.1,1.6,3.5,1.6l48.2-0.8
				c0.9-0.9,1.2-2.6,0.1-3.6c-7.1-7.1-45.1-19.4-46.9-20.5c-1.9-1-13.5,8-28.9-0.3c0,0-2.5,12.1-2.9,19.9c-0.1,3.2,2.4,5.9,5.6,5.8
				l12.2-0.2C338.4,619.3,339.6,618.7,340.4,617.7z"/>
			<path class="st4" d="M235.3,401.6c0,0-20,22.1,16.6,46.1c25.7,16.9,45.9,11.7,62.1,21.9c3.8,2.4,6.7,6,6.9,10.4l0.8,103.4l1.9,1
				c9.7,4.8,21.1,4.9,30.9,0.3l0,0l14.6-117.9c0.5-8.1-3.9-15-8.9-21.4c-28-35.6-77.6-47.7-90.1-49.8
				C253.8,393,235.3,401.6,235.3,401.6z"/>
		</g>
		<g>
			<polygon class="st4" points="244,583.1 242.3,593.8 250.4,604.4 271.2,594.5 273.6,584.7 247.9,580.5 			"/>
			<path class="st4" d="M260.3,617.9l2.2-2.6c0.4-0.5,1.1-0.5,1.5,0l2.1,2.5c0.9,1,2.1,1.6,3.5,1.6l48.2-0.2
				c0.9-0.9,1.2-2.5,0.1-3.6c-7-7.2-44.8-20.1-46.7-21.1c-1.9-1.1-13.6,7.8-28.9-0.7c0,0-2.7,12-3.1,19.8c-0.2,3.2,2.3,5.9,5.5,5.9
				l12.2,0C258.2,619.5,259.5,618.9,260.3,617.9z"/>
			<path class="st4" d="M174.5,382.3c0,0-24.2,27,10.8,57.5c24.6,21.4,46.6,12.3,62.1,25.3c3.6,3.1,6.1,7.2,5.8,12l-11.1,105.1
				l0.8,0.5c9.7,6.3,21.9,7.1,32.3,2.2l0,0l27.4-110.8c1.7-8.5-1.9-16.3-6.3-23.8c-24.3-41.5-62.5-66.2-75.4-70.1
				C204.2,375.1,174.5,382.3,174.5,382.3z"/>
		</g>
		<path class="st4" d="M308.2,466.7c-1.8-0.8-3.7-1.4-5.6-2c-1-4.9-3.4-9.7-6.2-14.3c-12-20.5-27.5-37-41.6-48.8
			c8.8-1.5,13.3-3.4,15.7-5.8c4.8,0.8,14.5,3,26.3,7.1C308.7,422.8,308.6,455.1,308.2,466.7z"/>
	</g>
	<path class="st5" d="M239.7,239.3c0,0-35-4.7-49.5,22.6c-14.5,27.2-36.2,134-17.2,137.2c8.4,1.4,30.8,7.1,55.6,5.3
		c34.1-2.5,41.5-5.6,44-12.1l21.7-99.5c0.5-13.7-5.6-26.9-16.5-35.1C260.4,244.5,239.7,239.3,239.7,239.3z"/>
	<path class="st6" d="M294.2,284.1c0,0,0.5,59.9,19.3,63.6c18.8,3.6,69,2.5,69,2.5v19.1H274.9L294.2,284.1z"/>
	<path class="st7" d="M268.2,256.9l4.2-21.2l-27.5-20.9l-5.3,25C239.7,239.7,248.3,277.9,268.2,256.9z"/>
	<path class="st8" d="M303.2,195.3c0,0-14.4,7-35.5-5.8c0,0-4.9,8.8-19,16.6c0,0-7.3-12.3-11.6-3.1c-1.3,2.8-1.9,5.3-1.9,7.5
		c-13.2-17.1-3.9-39.6,8.4-51.7c11.7-11.5,37-6.9,52.8-0.6c16.8,6.8,19.9-5,19.9-5C337.5,183.1,303.2,195.3,303.2,195.3z"/>
	<path class="st9" d="M248.8,206.1c0,0-7.3-12.3-11.6-3.1c-5.1,11.2,0.7,18.2,7.6,18.2c0,0,5.5,29.1,32.2,27
		c26.7-2.1,30.6-45,26.2-52.9c0,0-14.4,7-35.5-5.8C267.8,189.4,262.9,198.2,248.8,206.1z"/>
	<path class="st4" d="M480.3,274.1H368.8c-5.5,0-10.2,3.9-11.3,9.3l-14.8,72.8h135.1l13.9-68.1C493.1,280.8,487.7,274.1,480.3,274.1
		z"/>
	<path class="st4" d="M481.4,356.1H288.9c-0.8,0-1.4,0.6-1.4,1.4v10c0,0.8,0.6,1.4,1.4,1.4h192.5c0.8,0,1.4-0.6,1.4-1.4v-10
		C482.8,356.7,482.2,356.1,481.4,356.1z"/>
	<path class="st10" d="M477.3,356.1H341.2c3,0,5.5,2.5,5.5,5.5v1.8c0,3-2.5,5.5-5.5,5.5h136.2c3,0,5.5-2.5,5.5-5.5v-1.8
		C482.8,358.6,480.4,356.1,477.3,356.1z"/>
	<path class="st5" d="M299,352.2c-21.7-2.5-82.6-8.7-93.1-9.8c-13.2-1.4,15.4-54.5,18.6-72.6c3.2-18.2-10.7-18.8-10.7-18.8
		c-7.8-1-16.3,0-23.6,11c-14.9,22.5-31.4,88.3-22.7,104.6c1,1.9,3,3.1,5.2,3.1H299V352.2z"/>
	<path class="st6" d="M299,352.2c0,0-78.4-5.4-95.3-7.7c-13.1-1.8,14.2-56.2,17.4-74.3c3.2-18.2-10.9-17.4-10.9-17.4
		c-3.5-0.4-8.6,0.1-12.2,1.1c5.2-3.4,10.7-3.7,16-3.1c0,0,13.8,0.7,10.7,18.8c-3.2,18.2-27.7,70.1-19.4,72.2
		C215.3,344.4,277.3,349.7,299,352.2z"/>
	<path class="st9" d="M299,369.8h29.3c2.2,0,3.5-2.4,2.3-4.3c-2.7-4.2-7.1-10.2-10.2-11.2c-1.9-0.6-16.1-0.1-21.3,0.5V369.8z"/>
	<path class="st11" d="M303.2,195.3c0,0-2.4,1.1-6.6,1.7c-0.4,2-1,5.8-1.3,9.4c-0.5,5.1,2.1,21.1,0.5,21.2c-1.6,0.1-4.9-0.1-4.9-0.1
		s-2.5,23-25.5,19.4c-0.2,0-0.4-0.1-0.6-0.1c3.5,1.3,7.5,1.9,12.2,1.5C303.7,246.1,307.6,203.2,303.2,195.3z"/>
	<g>
		<g>
			<path class="st12" d="M564.5,369.6h-495c-1.4,0-2.5,1.1-2.5,2.5v17.7c0,1.4,1.1,2.5,2.5,2.5h495c1.4,0,2.5-1.1,2.5-2.5v-17.7
				C567,370.7,565.8,369.6,564.5,369.6z"/>
			<path class="st12" d="M557.2,369.6H76.7c-5.4,0-9.8,4.4-9.8,9.8v3.2c0,1,0.2,2,0.5,3c1.3-3.9,4.9-6.8,9.3-6.8h480.5
				c4.4,0,8,2.9,9.3,6.8c0.3-0.9,0.5-1.9,0.5-3v-3.2C567,374,562.6,369.6,557.2,369.6z"/>
		</g>
		<g>
			<g>
				<g>
					<polygon class="st12" points="228.6,618.7 212.5,618.7 100.8,392.4 116.9,392.4 					"/>
				</g>
			</g>
			<g>
				<g>
					<polygon class="st12" points="51.8,618.7 67.8,618.7 179.6,392.4 163.5,392.4 					"/>
				</g>
			</g>
			<g>
				<g>
					<polygon class="st12" points="574.5,618.7 558.4,618.7 446.7,392.4 462.8,392.4 					"/>
				</g>
			</g>
			<g>
				<g>
					<polygon class="st12" points="397.7,618.7 413.7,618.7 525.4,392.4 509.4,392.4 					"/>
				</g>
			</g>
			<g>
				<g>
					<polygon class="st12" points="121.3,401.4 116.9,392.4 100.8,392.4 105.2,401.4 					"/>
				</g>
			</g>
			<g>
				<g>
					<polygon class="st12" points="175.1,401.4 179.6,392.4 163.5,392.4 159.1,401.4 					"/>
				</g>
			</g>
			<g>
				<g>
					<polygon class="st12" points="467.2,401.4 462.8,392.4 446.7,392.4 451.1,401.4 					"/>
				</g>
			</g>
			<g>
				<g>
					<polygon class="st12" points="521,401.4 525.4,392.4 509.4,392.4 505,401.4 					"/>
				</g>
			</g>
		</g>
	</g>
	<g>
		<circle class="st5" cx="112" cy="279.1" r="33.1"/>
		<g>
			<g>
				<path class="st13" d="M84.2,279.5c0-15.5,12.5-28,28-28c15.5,0,28,12.5,28,28c0,14.1-10.5,25.8-24.1,27.7v-6.6
					c10-1.8,17.6-10.6,17.6-21.1c0-11.9-9.6-21.5-21.5-21.5c-11.9,0-21.5,9.6-21.5,21.5c0,10.3,7.2,18.8,16.8,21v6.6
					C94.3,304.9,84.2,293.4,84.2,279.5z"/>
				
					<rect x="100.5" y="300.5" transform="matrix(-1 -1.224647e-16 1.224647e-16 -1 208.0082 634.8477)" class="st13" width="6.9" height="33.9"/>
				
					<rect x="110" y="318.1" transform="matrix(-1.836970e-16 1 -1 -1.836970e-16 444.5868 217.618)" class="st13" width="6.9" height="25.9"/>
				<rect x="119.5" y="317.6" class="st13" width="6.9" height="6.9"/>
				<path class="st13" d="M137,304.9c6.2-5.9,10.2-14,10.9-23h5.5c-0.7,10.6-5.4,20-12.6,26.9L137,304.9z"/>
				<path class="st13" d="M100.5,312.9c2.2,0.8,4.5,1.3,6.9,1.6v5.5c-2.4-0.3-4.7-0.7-6.9-1.4V312.9z"/>
				<path class="st13" d="M70.9,279c0-22.8,18.5-41.3,41.3-41.3c21.7,0,39.5,16.7,41.2,38h-5.5c-1.7-18.2-17-32.5-35.7-32.5
					c-19.8,0-35.8,16-35.8,35.8c0,14.5,8.6,27,21.1,32.6v5.9C81.9,311.7,70.9,296.6,70.9,279z"/>
				<path class="st13" d="M119.5,319.7v-5.6c4.6-0.9,8.8-2.7,12.5-5.2l3.9,3.9C131.1,316.2,125.5,318.6,119.5,319.7z"/>
			</g>
			<polygon class="st13" points="105.5,338.9 105.5,337.7 121.5,337.7 121.5,338.9 116.7,343.7 110.2,343.7 			"/>
		</g>
		<circle class="st13" cx="112.5" cy="279.7" r="7"/>
	</g>
	<g>
		<g>
			<path class="st4" d="M87.1,324.7l4.1,37.2c0.5,4.6,4.4,8.2,9.1,8.2H124c4.7,0,8.6-3.5,9.1-8.2l4.1-37.2c0.2-2-1.4-3.8-3.4-3.8
				H90.5C88.5,321,86.9,322.7,87.1,324.7z"/>
			<path class="st14" d="M90.5,326.5h43.3c1.3,0,2.4,0.8,3,1.9l0.4-3.7c0.2-2-1.4-3.8-3.4-3.8H90.5c-2,0-3.6,1.8-3.4,3.8l0.4,3.7
				C88.1,327.3,89.2,326.5,90.5,326.5z"/>
			<path class="st14" d="M133.9,321h-15c2,0,3.6,1.8,3.4,3.8l-4.1,37.2c-0.5,4.6-4.4,8.2-9.1,8.2h15c4.7,0,8.6-3.5,9.1-8.2l4.1-37.2
				C137.5,322.7,135.9,321,133.9,321z"/>
		</g>
	</g>
	<path class="st5" d="M535.8,174.4H431.2c-5.4,0-9.7,4.3-9.7,9.7v47.1c0,5.4,4.3,9.7,9.7,9.7h7.3v11.4c0,1.6,1.9,2.4,3,1.4
		l14.1-12.7h80.1c5.4,0,9.7-4.3,9.7-9.7v-47.1C545.5,178.7,541.2,174.4,535.8,174.4z"/>
	<g>
		<circle class="st4" cx="458.1" cy="208.4" r="4.3"/>
		<circle class="st4" cx="484.4" cy="208.4" r="4.3"/>
		<circle class="st4" cx="508.9" cy="208.4" r="4.3"/>
	</g>
</g>
</svg>
