<?xml version="1.0" encoding="utf-8"?>
<!-- Generator: Adobe Illustrator 22.1.0, SVG Export Plug-In . SVG Version: 6.00 Build 0)  -->
<svg version="1.1" id="Layer_1" xmlns="http://www.w3.org/2000/svg" xmlns:xlink="http://www.w3.org/1999/xlink" x="0px" y="0px"
	 viewBox="0 0 400 400" style="enable-background:new 0 0 400 400;" xml:space="preserve">
<style type="text/css">
	.st0{opacity:0.42;fill:url(#SVGID_1_);}
	.st1{opacity:0.43;fill:#CEE5ED;}
	.st2{fill:#F2BF75;}
	.st3{fill:#1E394C;}
	.st4{fill:#F5D609;}
	.st5{fill:#1D1852;}
	.st6{fill:#EA9249;}
	.st7{fill:#4C4C4C;}
	.st8{fill:#EFDB78;}
	.st9{fill:#1D1851;}
	.st10{fill:#F2F2F2;}
	.st11{fill:#FFC64A;}
	.st12{fill:#E39D03;}
	.st13{fill:#E6E6E6;}
	.st14{fill:#F6BA8E;}
</style>
<g>
	<linearGradient id="SVGID_1_" gradientUnits="userSpaceOnUse" x1="199.1711" y1="343.8164" x2="199.1711" y2="-66.6601">
		<stop  offset="0" style="stop-color:#FFFFFF"/>
		<stop  offset="9.162324e-02" style="stop-color:#FFFEF8"/>
		<stop  offset="0.2223" style="stop-color:#FEFBE6"/>
		<stop  offset="0.3764" style="stop-color:#FCF5C7"/>
		<stop  offset="0.5485" style="stop-color:#FAEE9C"/>
		<stop  offset="0.7354" style="stop-color:#F7E465"/>
		<stop  offset="0.9318" style="stop-color:#F4D823"/>
		<stop  offset="1" style="stop-color:#F3D40A"/>
	</linearGradient>
	<path class="st0" d="M84.4,372.1H314c51.2-35.3,84.6-93.4,84.6-159.3c0-107.6-89.3-210.3-199.4-210.3C89,2.5-0.2,105.2-0.2,212.8
		C-0.2,278.7,33.2,336.9,84.4,372.1z"/>
	<ellipse class="st1" cx="194.8" cy="372.7" rx="165.6" ry="8.3"/>
	<g>
		<polygon class="st2" points="171.4,341.8 172.6,349.6 166.8,357.3 151.6,350.1 149.9,343 168.6,339.9 		"/>
		<path class="st3" d="M159.6,367.1l-1.6-1.9c-0.3-0.4-0.8-0.4-1.1,0l-1.5,1.9c-0.6,0.8-1.5,1.2-2.5,1.2l-35.1-0.1
			c-0.7-0.7-0.9-1.8-0.1-2.7c5.1-5.3,32.6-14.6,34-15.4c1.4-0.8,9.9,5.7,21.1-0.5c0,0,1.9,8.8,2.3,14.4c0.1,2.3-1.7,4.3-4,4.3
			l-8.9,0C161.1,368.3,160.2,367.8,159.6,367.1z"/>
	</g>
	<g>
		<polygon class="st2" points="227.6,342.1 228.9,349.9 223,357.6 207.8,350.4 206.1,343.3 224.9,340.2 		"/>
		<path class="st3" d="M215.8,367.4l-1.6-1.9c-0.3-0.4-0.8-0.3-1.1,0l-1.5,1.9c-0.6,0.8-1.5,1.2-2.5,1.2l-35.1-0.1
			c-0.7-0.7-0.9-1.8-0.1-2.7c5.1-5.3,32.6-14.6,34-15.4c1.4-0.8,9.9,5.7,21.1-0.5c0,0,1.9,8.8,2.3,14.4c0.1,2.3-1.7,4.3-4,4.3
			l-8.9,0C217.3,368.6,216.4,368.2,215.8,367.4z"/>
	</g>
	<polygon class="st4" points="146.7,89.3 136,130 107,110.6 93.8,121.1 131.8,156.6 159.1,131.3 	"/>
	<path class="st2" d="M106.9,110.6L98.5,94c-0.9-1.8-3.2-2.4-4.9-1.4l0,0c-4.7,2.8-7.1,8.2-6,13.6c1.1,5.3,3.1,11.6,6.2,15
		L106.9,110.6z"/>
	<path class="st5" d="M229.5,343.9c0-9.1-10.6-160.8-10.6-160.8s-21.4-20.8-33-18.6c-11.6-2.2-38.1,13.2-38.1,13.2
		s0.6,157,0.6,166.1h25.2c0,0,0.2-72.3,10-124.5c0.4-2.3,4-2.6,4.4-0.2c9.8,52.2,16.3,124.7,16.3,124.7H229.5z"/>
	<path class="st4" d="M186.4,64.6c0,0,29.7,7.3,33.8,12c4.1,4.7,19.6,34.3,19.3,44.3c-0.3,11.7-20.3,36.6-19.9,35.1v35.1
		c0,0-45.6,14.2-73.1-3.2c0,0-3.2-90.2,0.6-100.3c1.2-3.1,16.1-16.1,20.6-17.7S186.4,64.6,186.4,64.6z"/>
	<path class="st4" d="M239.6,120.9c-0.3,10.4-16.2,31.3-19.4,34.7c0,0,0,0,0,0c-0.3,0.3-0.5,0.4-0.5,0.4l-10,9l-12.1-10.9
		c0,0,22.3-15.9,19.2-36.3c-2.2-14.4-17.1-40.1-17.1-40.1c-5.1-2.9-10.1-8.2-14-12.9c0.5-0.1,0.8-0.2,0.8-0.2s29.7,7.3,33.9,12
		C224.4,81.4,239.8,111,239.6,120.9z"/>
	<path class="st6" d="M188,48.1v21.1c0,0-6.9,21.1-22.8,4.5l-1.4-16.8L188,48.1z"/>
	<path class="st7" d="M146.7,31.6c0,0-26.9-5.7-10.3-28.6c0,0,2.8,12.2,17.4,1.7c7.4-5.3,18.4-6.7,30.7,0
		c13.1,7.1,17.7,28.9,6.5,40.3l-22-4.4L146.7,31.6z"/>
	<path class="st2" d="M146.7,31.6c0,0-3.2,36.5,21,34.2c18.9-1.9,18.2-16.1,18.2-16.1s6.2-1.3,6.5-6.8c0.3-5.5-1.4-10.1-7-6.5
		c0,0-9.8-6.3-10.4-10.8C175,25.6,163.5,31.9,146.7,31.6z"/>
	<path class="st8" d="M217.2,113l-0.8,0.3h-65.3l-0.9-0.3l61.4-1.6c0,0-8-22.1-6.7-21.5C206.1,90.6,217.2,113,217.2,113z"/>
	<path class="st6" d="M157.3,60.4c-2.6-2.7-2.9-7.6-2.9-7.6s-2.9,0-3.2-0.4c-0.4-0.4,0.9-10.5,0.7-12.2c-0.2-1.2-0.8-6.1-1.2-8.8
		c-1.6,0.1-2.2,0.2-3.9,0.1c0,0-3.2,36.5,21,34.2C161.9,65.8,159.9,63.1,157.3,60.4z"/>
	<g>
		<circle class="st4" cx="97.3" cy="56.2" r="26.9"/>
		<g>
			<g>
				
					<rect x="87.9" y="73.6" transform="matrix(-1 -1.224647e-16 1.224647e-16 -1 181.5437 174.6998)" class="st9" width="5.6" height="27.5"/>
				
					<rect x="95.7" y="87.9" transform="matrix(-1.836970e-16 1 -1 -1.836970e-16 196.9474 -9.161230e-03)" class="st9" width="5.6" height="21.1"/>
				<rect x="103.4" y="87.5" class="st9" width="5.6" height="5.6"/>
				<path class="st9" d="M117.6,77.1c5-4.8,8.3-11.4,8.9-18.7h4.5c-0.6,8.6-4.4,16.3-10.2,21.9L117.6,77.1z"/>
				<path class="st9" d="M87.9,83.6c1.8,0.6,3.7,1.1,5.6,1.3v4.5c-1.9-0.2-3.8-0.6-5.6-1.1V83.6z"/>
				<path class="st9" d="M63.9,56.1c0-18.5,15-33.6,33.6-33.6c17.6,0,32.1,13.6,33.5,30.9h-4.5c-1.3-14.8-13.8-26.4-29-26.4
					c-16.1,0-29.1,13-29.1,29.1c0,11.8,7,22,17.1,26.5v4.8C72.8,82.7,63.9,70.4,63.9,56.1z"/>
				<path class="st9" d="M103.4,89.2v-4.5c3.7-0.8,7.1-2.2,10.2-4.3l3.2,3.2C112.8,86.3,108.3,88.3,103.4,89.2z"/>
			</g>
			<polygon class="st9" points="92,104.8 92,103.9 105,103.9 105,104.8 101.1,108.7 95.8,108.7 			"/>
		</g>
		<circle class="st9" cx="97.7" cy="56.7" r="5.7"/>
		<g>
			<path class="st9" d="M95.5,58.4c-0.4-0.3-0.7-0.8-0.7-1.3c0-0.8,0.7-1.4,1.5-1.4l16.4,0.7c0.8,0,1.4,0.7,1.4,1.5
				c0,0.8-0.7,1.4-1.5,1.4l-16.4-0.7C95.9,58.6,95.7,58.5,95.5,58.4z"/>
			<path class="st9" d="M95.5,58.4c-0.4-0.2-0.7-0.7-0.7-1.2l-0.6-21.9c0-0.8,0.6-1.4,1.4-1.5c0.8,0,1.4,0.6,1.5,1.4l0.6,21.9
				c0,0.8-0.6,1.4-1.4,1.5C96,58.6,95.8,58.5,95.5,58.4z"/>
		</g>
	</g>
	<path class="st2" d="M107,110.7l1.9-6.2c0.8-1.6,0.3-3.5-1.1-4.5l-3.2-2.2c-1-0.7-2.3-0.5-3,0.4l0,0c-0.9,1-0.7,2.5,0.3,3.3
		l1.5,1.2l1.5,1.1l-3.6,5.4L107,110.7z"/>
	<g>
		<path class="st10" d="M213.4,187.3c-1.9-0.9-3.1-1.6-3.1-1.6l-0.2,0.7l-1.1-0.7l-0.1,0.3c-0.8-0.8-7.1-6.6-10.1,0.1
			c-0.4,0.9-0.6,1.7-0.6,2.5c1.1,0.1,2.2,0.1,3.3,0.1c2.2,0,4.4-0.2,6.5-0.4l0,0v0C209.8,188.1,211.6,187.8,213.4,187.3z"/>
		<g>
			<g>
				
					<ellipse transform="matrix(0.7979 -0.6027 0.6027 0.7979 -42.9258 149.0337)" class="st11" cx="200.8" cy="138.5" rx="48.9" ry="48.9"/>
			</g>
		</g>
		<g>
			<g>
				<path class="st12" d="M161,138.5c0-22,17.8-39.8,39.8-39.8c22,0,39.8,17.8,39.8,39.8c0,22-17.8,39.8-39.8,39.8
					C178.8,178.3,161,160.5,161,138.5z"/>
			</g>
		</g>
		<path class="st13" d="M200.8,100.1c21.7,0,39.4,17.4,39.8,39.1c0-0.2,0-0.5,0-0.7c0-22-17.8-39.8-39.8-39.8
			c-22,0-39.8,17.8-39.8,39.8c0,0.2,0,0.5,0,0.7C161.4,117.6,179.1,100.1,200.8,100.1z"/>
		<g>
			<g>
				<g>
					<path class="st13" d="M188.8,157.6c-2-1.8-3-4.6-3-8.4v-1.6h11v1.2c0,1.8,0.3,3.1,1,3.8c0.7,0.7,1.6,1,2.7,1
						c1.2,0,2.1-0.4,2.7-1.2c0.6-0.8,0.9-1.7,0.9-2.8c0-1.4-0.4-2.5-1.3-3.3c-0.9-0.8-2-1.5-3.3-2.1c-1.3-0.6-2.7-1.2-4.3-1.8
						c-1.5-0.6-3-1.4-4.3-2.3c-1.3-1-2.4-2.2-3.3-3.7c-0.9-1.5-1.3-3.5-1.3-6c0-7.6,3.7-12,11.1-13.2v-3.5h5.6v3.5
						c4.1,0.4,7,1.6,8.8,3.7c1.8,2,2.7,5.2,2.7,9.3h-10.6v-0.9c0-1.2-0.3-2.3-0.8-3.2c-0.5-0.9-1.3-1.4-2.4-1.4
						c-1.2,0-2.1,0.4-2.7,1.2c-0.6,0.8-0.9,1.7-0.9,2.6c0,1.4,0.5,2.5,1.4,3.3c0.9,0.8,2.1,1.5,3.4,2.1c1.4,0.6,2.9,1.2,4.4,1.7
						c1.6,0.5,3.1,1.3,4.4,2.3c1.4,1,2.5,2.3,3.4,3.8c0.9,1.6,1.4,3.7,1.4,6.3c0,4.1-1.1,7.2-3.2,9.2c-2.1,2-5.3,3.2-9.5,3.7v5.5
						h-5.6v-5.5C193.7,160.4,190.8,159.4,188.8,157.6z"/>
				</g>
			</g>
		</g>
		<g>
			<g>
				<g>
					<path class="st11" d="M188.8,156.2c-2-1.8-3-4.6-3-8.4v-1.6h11v1.2c0,1.8,0.3,3.1,1,3.8c0.7,0.7,1.6,1,2.7,1
						c1.2,0,2.1-0.4,2.7-1.2c0.6-0.8,0.9-1.7,0.9-2.8c0-1.4-0.4-2.5-1.3-3.3c-0.9-0.8-2-1.5-3.3-2.1c-1.3-0.6-2.7-1.2-4.3-1.8
						c-1.5-0.6-3-1.4-4.3-2.3c-1.3-1-2.4-2.2-3.3-3.7c-0.9-1.5-1.3-3.5-1.3-6c0-7.6,3.7-12,11.1-13.2v-3.5h5.6v3.5
						c4.1,0.4,7,1.6,8.8,3.7c1.8,2,2.7,5.2,2.7,9.3h-10.6v-0.9c0-1.2-0.3-2.3-0.8-3.2c-0.5-0.9-1.3-1.4-2.4-1.4
						c-1.2,0-2.1,0.4-2.7,1.2c-0.6,0.8-0.9,1.7-0.9,2.6c0,1.4,0.5,2.5,1.4,3.3c0.9,0.8,2.1,1.5,3.4,2.1c1.4,0.6,2.9,1.2,4.4,1.7
						c1.6,0.5,3.1,1.3,4.4,2.3c1.4,1,2.5,2.3,3.4,3.8c0.9,1.6,1.4,3.7,1.4,6.3c0,4.1-1.1,7.2-3.2,9.2c-2.1,2-5.3,3.2-9.5,3.7v5.5
						h-5.6v-5.5C193.7,159,190.8,157.9,188.8,156.2z"/>
				</g>
			</g>
		</g>
	</g>
	<path class="st8" d="M222.7,79.8c0,0,14.4,35.8,14.4,43c-0.1,14.2-31.4,48.1-39.4,57.3l4.1,3.3c0,0,39.1-43.2,39.2-59.8
		C241.1,114.3,229.8,91.9,222.7,79.8z"/>
	<path class="st14" d="M178.6,188.6c-1.2,1.5-0.8,3.9,1,5.4l4.1,3.3c1.8,1.4,4.2,1.4,5.4-0.1l12.9-16l-12.3-9.5l-13.4,9.5
		c-0.9,0.7-0.9,2.1,0,2.7c0.6,0.4,1.3,0.6,2.2,0.5c2.5-0.4,3.6-1.8,3.6-1.8L178.6,188.6z"/>
	<path class="st4" d="M187.4,171.8l14.4,11.6c0,0,39.1-43.2,39.2-59.8c0.1-9.3-11.2-31.7-18.3-43.7h-25.3c0,0,18.1,27.2,23.5,40.2
		c1,2.5,0.7,5.3-0.8,7.5C213.5,137.2,194.1,165.3,187.4,171.8z"/>
</g>
</svg>
