<?xml version="1.0" encoding="utf-8"?>
<!-- Generator: Adobe Illustrator 22.1.0, SVG Export Plug-In . SVG Version: 6.00 Build 0)  -->
<svg version="1.1" id="Layer_1" xmlns="http://www.w3.org/2000/svg" xmlns:xlink="http://www.w3.org/1999/xlink" x="0px" y="0px"
	 viewBox="0 0 400 400" style="enable-background:new 0 0 400 400;" xml:space="preserve">
<style type="text/css">
	.st0{opacity:8.000000e-02;fill:#1D1852;}
	.st1{fill:#201B50;}
	.st2{fill:#F4D50C;}
	.st3{clip-path:url(#SVGID_2_);fill:#201B50;}
</style>
<path class="st0" d="M1.1,353.6c3.3-0.1,6.6-0.2,9.9-0.2c0.4,0,1.2,1.1,1.2,1.8c0.1,4.3,0.1,8.6,0.1,12.8c0,0.7,0,1.4,0,2.3
	c3.2,0,6.3,0,9.6,0c0-2.6,0.1-5.2,0-7.8c-0.1-1.7,0.4-2.4,2.2-2.4c6.1,0.1,5.1-0.7,5.2,5.2c0,1.3,0,2.5,0,3.9c8.7,0,17.1,0,25.9,0
	c0-0.7,0-1.4,0-2.1c0-7.7,0.1-15.4,0-23.1c0-2.1,0.6-2.8,2.6-2.6c1.5,0.1,3,0.1,4.6,0c1.7-0.1,2.2,0.5,2.2,2.2
	c-0.1,8.1,0,16.2,0,24.3c0,0.7,0,1.5,0,2.4c3.5,0,6.9,0,10.5,0c0-0.8,0-1.5,0-2.3c0-11.6,0-23.1,0-34.7c0-2.1,0.7-2.7,2.6-2.6
	c1.8,0.1,3.7,0.1,5.5,0c1.1,0,1.6,0.5,1.6,1.5c0,1.5,0,3.1,0,4.8c1.1,0,2.1,0.1,3.1,0c1.7-0.2,2.3,0.5,2.3,2.3
	c-0.1,9.6,0,19.1,0,28.7c0,0.7,0,1.4,0,2.3c4,0,7.9,0,12,0c0-2.5,0-4.8,0-7.2c0-4.8,0.1-9.6,0-14.5c0-1.7,0.6-2.3,2.2-2.2
	c2.1,0.1,4.2,0,6.5,0c0-1.3,0.1-2.4,0-3.5c-0.1-1.3,0.4-2,1.8-1.9c2.7,0.1,5.4,0.1,8.1,0c1.3,0,1.8,0.5,1.7,1.8
	c-0.1,1.1,0,2.3,0,3.7c2.1,0,4,0.1,5.8,0c1.8-0.1,2.4,0.5,2.4,2.4c-0.1,6.4,0,12.8,0,19.3c0,0.7,0,1.4,0,2.3c2.2,0,4.1,0,6.2,0
	c0-0.8,0-1.5,0-2.3c0-6.8,0.2-13.7,0-20.5c-0.6-17.4,1.6-34.4,5.8-51.2c0.7-2.7,1.2-5.4,1.8-8c0.1-0.6,0.7-1,1-1.5
	c0.4,0.4,1,0.8,1.2,1.4c4,17.4,8,34.8,7.7,52.8c-0.2,9.7,0,19.4,0,29.3c3.6,0,7.2,0,11,0c0-0.8,0-1.6,0-2.5c0-41.9,0-83.8,0-125.6
	c0-3.2,0-3.2,3.3-3.2c10.8,0,21.7,0,32.5,0c2.9,0,2.9,0,2.9,2.9c0,41.9,0,83.9,0,125.8c0,0.9,0,1.7,0,2.7c4.9,0,9.6,0,14.5,0
	c0-0.5,0.1-1,0.1-1.5c0-3.1,0-6.3,0-9.4c0-4.6,0.4-9.3-1.6-13.7c-0.7-1.4-0.7-2.7,1.6-2.6c0-6.9,0.1-13.5-0.1-20.2
	c0-1.8-1-3.5-1.5-5.3c-0.5-1.5-0.5-2.7,1.7-2.6c0-6.6,0.1-13-0.1-19.4c0-1.7-1.1-3.4-1.5-5.1c-0.7-2.6-0.6-2.6,2.1-3
	c0.3-3.1,0.7-6.3,1-9.5c0.5-4.9,1-9.7,1.6-14.6c0.1-0.7,0.7-1.2,1-1.9c0.4,0.6,1,1.2,1,1.8c0.7,7.3,1.3,14.5,2,21.8
	c0.1,0.8,0.2,1.6,0.3,2.3c2.7,0.4,3,0.5,2,3.1c-3,7.9-0.7,16.1-1.7,24.3c2.5,0.2,2.4,1.6,1.7,3.2c-2.6,6.3-1.2,12.9-1.5,19.3
	c-0.1,1.8,0,3.6,0,5.6c2.5,0.1,2.1,1.6,1.5,3.1c-3,7.9-0.8,16.1-1.7,24.2c3.5,0,6.7,0,10.2,0c0-0.7,0.1-1.4,0.1-2.1
	c0-7.4,0-14.9,0-22.3c0-2.8,0-2.8,2.9-2.8c2,0,4,0.1,5.9,0c1.7-0.1,2.2,0.6,2.1,2.2c-0.1,7.8,0,15.7,0,23.5c0,0.5,0,0.9,0.1,1.5
	c1.6,0,3.2,0,5,0c0-0.7,0-1.4,0-2.1c0-15.5,0-30.9,0-46.4c0-1-0.2-1.6-1-2.5c-0.9-1.1-1.1-2.9-1.3-4.5c0-0.3,1.3-0.9,2.4-1.5
	c0.3-4.6,0.7-9.6,1-14.7c0.2-2.9,0.3-5.7,0.6-8.6c0.1-0.6,0.7-1.2,1.1-1.8c0.3,0.6,0.9,1.3,1,1.9c0.6,7.5,1.1,14.9,1.6,22.4
	c0,0.4,0.1,0.8,0.1,0.9c0.9,0.5,2.3,1,2.3,1.3c-0.3,1.6-0.9,3.2-1.5,4.8c-0.2,0.4-0.8,0.8-0.8,1.1c-0.1,4.8,0,9.6,0,14.6
	c0.8,0,1.4,0.1,2.1,0.1c3.1,0,3.1,0,3.1,3.2c0,4.3,0,8.7,0,13c0,0.7,0.1,1.3,0.1,1.8c1.6,1.2,4.3-1.1,4.9,1.9c1.6-1.7,3.1-3.4,4.8-5
	c0.8-0.7,1.7-1.5,2.7-1.6c2.6-0.4,3-2,2.7-4.2c-0.1-0.7-0.2-1.5,0-2.2c0.2-0.6,0.7-1.1,1-1.6c0.3,0.5,0.8,1,0.9,1.5
	c0.1,1.8,0,3.6,0,5.6c4.6,0.9,7.5,3.9,10.1,7.8c0.7-3.2,3.2-1.2,5-2.1c0-0.6,0.1-1.3,0.1-2c0-4.7,0.1-9.4,0-14
	c0-1.7,0.5-2.3,2.2-2.2c0.9,0.1,1.8,0,3,0c0-3.1,0-6,0-8.9c0-1.6,0-3.2,0-4.8c0-0.9-0.3-1.5-0.9-2.3c-0.9-1.2-1.1-3-1.4-4.6
	c0-0.3,1.3-0.8,2.3-1.4c0.2-3,0.5-6.4,0.7-9.9c0.3-4.4,0.6-8.8,0.9-13.2c0-0.2,0-0.4,0-0.6c0.3-0.5,0.7-1,1-1.5c0.3,0.5,0.9,1,1,1.5
	c0.3,3.2,0.5,6.4,0.7,9.6c0.3,4.8,0.7,9.6,1,14c1,0.7,2.5,1.2,2.4,1.6c-0.2,1.6-0.9,3.1-1.4,4.7c-0.2,0.5-0.8,1-0.8,1.5
	c0,16.1,0,32.2,0,48.4c0,0.3,0.1,0.5,0.1,0.8c1.6,0,3.2,0,4.9,0c0-0.9,0-1.7,0-2.5c0-7.5,0-15,0-22.5c0-1.8,0.6-2.4,2.3-2.3
	c2.2,0.1,4.4,0.1,6.5,0c1.6-0.1,2.2,0.5,2.2,2.2c-0.1,7.6,0,15.1,0,22.7c0,0.7,0,1.5,0,2.3c3.4,0,6.6,0,10.1,0c0-2.4,0-4.7,0-7
	c0-1.6,0-3.2,0-4.8c0.1-4.4,0.1-8.8-1.7-12.9c-0.6-1.4-0.4-2.6,1.6-2.5c0-6.9,0.1-13.6-0.1-20.4c0-1.7-1-3.4-1.6-5.1
	c-0.5-1.5-0.7-2.8,1.7-2.6c0-6.7,0.1-13.2-0.1-19.7c0-1.6-1.1-3.1-1.5-4.7c-0.7-2.7-0.7-2.7,2-3.3c0.4-4,0.7-8,1.1-12.1
	c0.4-3.9,0.7-7.9,1.1-11.8c0.1-0.7,0.7-1.3,1.1-2c0.3,0.6,0.9,1.3,1,1.9c0.8,7.6,1.6,15.3,2.4,22.9c0,0.3,0.1,0.6,0.2,0.9
	c2.7,0.7,3,0.8,2,3.4c-2.2,5.3-1.3,10.7-1.4,16.1c-0.1,2.6,0,5.2,0,8c2,0.2,2.3,1.4,1.6,3c-2.4,5.5-1.4,11.4-1.6,17.1
	c-0.1,2.6,0,5.2,0,8c2.4,0,2.1,1.4,1.6,2.9c-3,8-0.8,16.2-1.7,24.4c5,0,9.8,0,14.8,0c0-3.8,0-7.6,0-11.4c0-2.8,0-2.8,2.9-2.8
	c1.9,0,3.8,0.1,5.7,0c1.5-0.1,2.1,0.6,2.1,2.1c-0.1,4,0,8,0,12.2c0.8,0,1.4,0.1,2.3,0.1c0-0.8,0-1.5,0-2.2c0-10.2,0-20.5,0-30.7
	c0-1.8,0.4-2.5,2.3-2.4c5.4,0.1,10.8,0.1,16.3,0c1.8,0,2.3,0.6,2.2,2.3c-0.1,10.2,0,20.3,0,30.5c0,0.7,0,1.5,0,2.6
	c2.2,0,4.4,0.1,6.5,0c1.6-0.1,2.2,0.4,2.2,2.2c-0.1,8.8,0,17.5-0.1,26.3c0,0.7-0.6,1.4-1,2c-0.3-0.7-0.9-1.4-0.9-2.1
	c-0.1-8,0-15.9,0-23.9c0-0.7,0-1.5,0-2.5c-2.3,0-4.4-0.1-6.6,0c-1.7,0.1-2.2-0.6-2.1-2.2c0.1-10.1,0-20.2,0-30.3c0-0.9,0-1.7,0-2.7
	c-5.6,0-11,0-16.8,0c0,0.8,0,1.6,0,2.4c0,17.9,0,35.7,0,53.6c0,1,0.6,2.5-1.1,2.7c-0.2,0-0.9-1.7-0.9-2.6c-0.1-6.2,0-12.3,0-18.5
	c0-0.7,0-1.4,0-2c-0.3-0.2-0.4-0.3-0.6-0.3c-3.8-0.4-3.8-0.4-3.8-4.3c0-3.3,0-6.5,0-9.9c-2.3,0-4.3,0-6.7,0c0,3.6,0,7.1,0,10.6
	c0,4.2,0.2,3.6-3.7,3.6c-4.2,0-8.4,0-13,0c0,1.9,0.1,3.7,0,5.5c0,0.6-0.7,1.1-1,1.6c-0.3-0.5-0.9-1-0.9-1.5c-0.1-9.5-0.1-19,0-28.5
	c0-1.3,1-2.6,1.6-3.9c-0.2,0-0.5,0-0.7,0c-0.3-1-0.9-1.9-0.9-2.9c-0.1-6.8-0.1-13.6,0-20.5c0-1.6,0.9-3.2,0.9-4.6
	c-0.3-1-0.9-2-1-3.1c-0.1-6.7-0.1-13.4-0.1-20.1c0-0.7,0.6-1.5,0.9-2.2c0.3-0.7,0.5-1.5,0.9-2.4c-2.4,0-2.3-1.7-2.4-3.3
	c-0.4-4-0.8-8-1.5-11.9c-0.4,4.3-0.9,8.6-1.2,12.8c-0.1,1.4-0.4,2.4-2.6,2.2c0.7,1.3,1.2,2.1,1.6,3c0.2,0.5,0.5,1.1,0.5,1.6
	c0,6.9,0,13.8-0.1,20.7c0,0.9-0.6,1.7-1,2.6c-0.3,0-0.5,0-0.8,0c0.5,0.9,1,1.8,1.4,2.7c0.2,0.5,0.4,1,0.4,1.5c0,7.2,0,14.3,0,21.5
	c0,0.8-0.6,1.6-0.9,2.4c-0.3,0-0.5,0-0.8,0c0.5,0.9,1,1.8,1.3,2.7c0.2,0.6,0.4,1.3,0.4,1.9c0,6.7,0,13.4,0,20.1
	c0,1.8-0.6,2.3-2.3,2.3c-3.2-0.1-6.5-0.1-9.7,0c-1.7,0.1-2.2-0.6-2.2-2.2c0.1-7.5,0-15,0-22.5c0-0.8,0-1.6,0-2.5c-2.3,0-4.5,0-7,0
	c0,1.2,0,2.3,0,3.4c0,7.1-0.1,14.2,0,21.3c0,1.9-0.6,2.7-2.5,2.5c-1.4-0.1-2.9-0.1-4.4,0c-1.7,0.2-2.3-0.5-2.3-2.3
	c0.1-11.2,0-22.5,0-33.7c0-5.4,0-10.7,0-16.1c0-1.2-0.5-2.7,1.5-2.9c0.2,0,0.4-0.8,0.7-1.4c-2.2,0.2-2.3-1.3-2.3-2.7
	c-0.1-2.4-0.3-4.8-0.8-7.2c-0.2,2.4-0.4,4.9-0.5,7.3c0,1.5-0.2,2.7-2.4,2.5c0.4,0.7,0.6,1.5,0.8,1.5c1.9,0.2,1.5,1.6,1.5,2.7
	c0,4.8,0,9.6,0,14.5c0,2.7,0,2.7-2.7,2.7c-0.7,0-1.4,0-2.5,0c0,1.2,0,2.4,0,3.6c0,4,0,8,0,12c0,2.8,0,2.8-2.8,2.8
	c-0.6,0-1.2,0-2.1,0c0,0.8,0,1.5,0,2.3c0,10.6,0,21.1,0,31.7c0,0.5,0.1,1.1-0.1,1.6c-0.2,0.4-0.7,0.8-1.1,1.1
	c-0.3-0.4-0.7-0.7-0.8-1.2c-0.1-0.5,0-1.1,0-1.6c0-9.2,0-18.3,0-27.5c0-4.7-6-11.7-10.5-12.3c-2.7-0.4-5.1,0.6-6.8,2.6
	c-2,2.2-3.5,4.8-5.3,7.2c-0.4,0.5-1,0.9-1.5,1.3c-0.3-0.6-0.7-1.2-0.8-1.9c-0.1-1,0-2.1,0-3.2c-0.4-0.1-0.6-0.2-0.9-0.2
	c-4.3,0-3.9,0.4-3.9-4c0-4.7,0-9.5,0-14.4c-1.3,0-2.4,0-3.5,0c-1.2,0-1.7-0.5-1.6-1.7c0-5.5,0-11,0.1-16.5c0-0.5,0.6-1.1,1.1-1.5
	c0.4-0.3,1-0.4,1.4-1c-2.3-0.6-2.6-1.8-2.6-3.4c0-2.3-0.3-4.5-0.8-6.8c-0.2,2.4-0.4,4.8-0.5,7.3c-0.1,1.4-0.3,2.5-2.4,2.3
	c0.4,0.7,0.6,1.6,0.8,1.6c1.8,0.1,1.5,1.4,1.5,2.5c0,16.7,0,33.3,0,50c0,1.8-0.4,2.6-2.3,2.4c-1.6-0.1-3.2-0.1-4.8,0
	c-1.6,0.1-2.1-0.6-2-2.1c0-7.6,0-15.3,0-22.9c0-0.7,0-1.4,0-2.2c-2.4,0-4.5,0-7,0c0,0.8,0,1.6,0,2.4c0,11.6,0,23.1,0,34.7
	c0,0.5,0.1,1,0,1.4c-0.2,0.6-0.7,1-1.1,1.6c-0.3-0.5-0.8-1-0.8-1.5c-0.1-3.3,0-6.7-0.1-10c0-0.4-0.1-0.8-0.2-1.3
	c-3.4,0-6.6-0.1-9.9,0c-1.5,0-2-0.5-2-2c0-6.9-0.1-13.8,0.1-20.7c0-1.4,1-2.9,1.6-4.3c-0.2,0-0.4,0.1-0.6,0.1c-0.3-0.9-1-1.8-1-2.7
	c-0.1-7-0.1-13.9,0-20.9c0-1.5,1-3,1.5-4.5c-0.2,0-0.4,0.1-0.6,0.1c-0.3-1-0.9-1.9-1-2.9c-0.1-6.7-0.1-13.4-0.1-20.1
	c0-0.8,0.6-1.6,0.9-2.4c0.3-0.7,0.5-1.5,0.8-2.4c-1.9-0.1-2.2-1.2-2.3-2.8c-0.3-4.1-0.7-8.3-1.4-12.4c-0.4,3.5-0.8,7.1-1.1,10.6
	c-0.1,0.8,0,1.7-0.3,2.4c-0.3,0.9-0.9,1.6-1.4,2.5c-0.3,0-0.6-0.1-0.9-0.1c0.5,0.9,1,1.7,1.4,2.6c0.2,0.6,0.5,1.2,0.5,1.8
	c0,6.8,0,13.6-0.1,20.5c0,1.2,0.2,2.4-1.2,2.3c2.3,8.8,0.7,17.6,1.1,26.3c0,0.7-0.7,1.4-1.1,2.3c2.5,7.9,0.6,16.5,1.2,24.9
	c0.1,1.4-0.6,1.8-1.9,1.8c-4.8-0.1-9.6,0-14.7,0c0,2.6,0,5,0,7.5c0,0.6,0.1,1.2-0.1,1.8c-0.1,0.3-0.6,0.7-1,0.7
	c-0.2,0-0.7-0.4-0.8-0.7c-0.1-0.7-0.1-1.5-0.1-2.2c0-45.2,0-90.5,0-135.7c0-0.9,0-1.7,0-2.8c-11.6,0-23,0-34.6,0c0,1.1,0,2.1,0,3.1
	c0,41.8,0,83.6,0,125.4c0,2.9,0,2.9-2.9,2.9c-3.3,0-6.6,0-10.2,0c0,1.7,0,3.3,0,4.9c0,4.3,0.1,8.7,0,13c0,0.7-0.7,1.5-1,2.2
	c-0.3-0.7-0.9-1.4-0.9-2.1c-0.1-15.6-0.2-31.2,0-46.8c0.3-16.9-2.5-33.4-6.5-49.8c0-0.2-0.2-0.3-0.4-0.8c-0.6,2.7-1.2,5.2-1.7,7.7
	c-0.5,2.5-1.1,5-1.6,7.4c-2.2,10.6-3.3,21.3-3.3,32.1c0.1,11.8,0,23.7,0,35.5c0,0.5,0.1,1.1,0,1.6c-0.2,0.5-0.6,1-0.9,1.5
	c-0.3-0.5-0.9-0.9-0.9-1.4c-0.1-1.6,0-3.2,0-5c-2.2,0-4.1-0.1-6.1,0c-1.6,0.1-2.2-0.5-2.2-2.2c0.1-6.6,0-13.2,0-19.9
	c0-0.6-0.1-1.2-0.1-2c-1.8,0-3.5,0-5.2,0c-2.9,0-2.9,0-2.9-2.8c0-0.8,0-1.6,0-2.5c-2.6,0-5,0-7.7,0c0,0.8,0,1.5,0,2.2
	c0,3.1,0,3.1-3.2,3.1c-1.8,0-3.5,0-5.5,0c0,1,0,1.7,0,2.4c0,8.2,0,16.5,0,24.7c0,0.4,0.1,0.9,0,1.2c-0.2,0.6-0.7,1.1-1,1.6
	c-0.3-0.6-0.9-1.1-0.9-1.7c-0.1-1.3,0-2.6,0-4.2c-3.9,0-7.7-0.1-11.4,0c-2,0.1-2.6-0.6-2.6-2.6c0.1-9.4,0-18.9,0-28.3
	c0-0.7,0-1.5,0-2.5c-1.2,0-2.3-0.1-3.4,0c-1.5,0.1-2-0.6-1.9-2c0.1-1.4,0-2.8,0-4.3c-2,0-3.7,0-5.8,0c0,0.8,0,1.6,0,2.4
	c0,11.6,0,23.1,0,34.7c0,2.1-0.6,2.7-2.6,2.6c-3.2-0.2-6.5,0-10,0c0,1.4,0,2.8,0,4.1c0,4.5,0,9,0,13.4c0,0.9,0.6,2.4-1,2.5
	c-0.3,0-0.9-1.6-0.9-2.4c-0.1-14.7,0-29.4,0-44.2c0-0.7,0-1.4,0-2.3c-1.8,0-3.4,0-5.2,0c0,0.8,0,1.5,0,2.2c0,7.8,0,15.5,0,23.3
	c0,1.8-0.6,2.3-2.3,2.3c-7.7-0.1-15.3,0-23,0c-0.8,0-1.6,0-2.7,0c0,2.9,0,5.6,0,8.3c0,1.3,0.1,2.7,0,4c-0.1,0.6-0.6,1.1-1,1.7
	c-0.3-0.5-0.9-1.1-0.9-1.6c-0.1-5.6,0-11.2,0-16.9c0-1.5,0-2.9,0-4.5c-1.1,0-2.1,0-3.4,0c0,2.6-0.1,5.1,0,7.7
	c0.1,1.9-0.5,2.6-2.5,2.5c-3-0.2-5.9-0.1-8.9,0c-1.8,0.1-2.3-0.6-2.2-2.3c0.1-4.1,0-8.3,0-12.4c0-0.7,0-1.4,0-2.3
	c-2.4,0-4.6,0-7.2,0c0,0.8,0,1.6,0,2.3c0,10.9,0,21.8,0,32.7c0,2.2-0.3,2.4-2,1.6C1.1,379.3,1.1,366.5,1.1,353.6z"/>
<polygon class="st1" points="399.3,400 159.8,400 152.9,380.7 399.3,380.7 "/>
<polygon class="st2" points="152.9,400 42.8,400 35,380.7 145.1,380.7 "/>
<g>
	<defs>
		<rect id="SVGID_1_" x="1.4" y="283.8" width="35.1" height="116.2"/>
	</defs>
	<clipPath id="SVGID_2_">
		<use xlink:href="#SVGID_1_"  style="overflow:visible;"/>
	</clipPath>
	<polygon class="st3" points="36.5,400 -60.8,400 -67.7,380.7 29.6,380.7 	"/>
</g>
</svg>
