<?xml version="1.0" encoding="utf-8"?>
<!-- Generator: Adobe Illustrator 22.1.0, SVG Export Plug-In . SVG Version: 6.00 Build 0)  -->
<svg version="1.1" id="Layer_1" xmlns="http://www.w3.org/2000/svg" xmlns:xlink="http://www.w3.org/1999/xlink" x="0px" y="0px"
	 viewBox="0 0 400 400" style="enable-background:new 0 0 400 400;" xml:space="preserve">
<style type="text/css">
	.st0{opacity:0.42;fill:url(#SVGID_1_);}
	.st1{opacity:0.43;fill:#CEE5ED;}
	.st2{fill:#17161C;}
	.st3{fill:#1D1852;}
	.st4{fill:#FFFFFF;}
	.st5{opacity:0.25;fill:#34648C;}
	.st6{fill:#F2BF75;}
	.st7{fill:#1E394C;}
	.st8{fill:#4C4C4C;}
	.st9{fill:#EFDB78;}
	.st10{fill:#F5D609;}
	.st11{fill:#EA9249;}
	.st12{fill:#1D1851;}
</style>
<g>
	<linearGradient id="SVGID_1_" gradientUnits="userSpaceOnUse" x1="198.1764" y1="356.0557" x2="198.1764" y2="17.5187">
		<stop  offset="0" style="stop-color:#FFFFFF"/>
		<stop  offset="9.162324e-02" style="stop-color:#FFFEF8"/>
		<stop  offset="0.2223" style="stop-color:#FEFBE6"/>
		<stop  offset="0.3764" style="stop-color:#FCF5C7"/>
		<stop  offset="0.5485" style="stop-color:#FAEE9C"/>
		<stop  offset="0.7354" style="stop-color:#F7E465"/>
		<stop  offset="0.9318" style="stop-color:#F4D823"/>
		<stop  offset="1" style="stop-color:#F3D40A"/>
	</linearGradient>
	<path class="st0" d="M103.5,379.4h189.3c42.2-29.1,69.8-77.1,69.8-131.4c0-88.8-73.6-173.4-164.5-173.4
		c-90.8,0-164.5,84.7-164.5,173.4C33.7,302.3,61.3,350.3,103.5,379.4z"/>
	
		<ellipse transform="matrix(0.2241 -0.9746 0.9746 0.2241 -219.7124 454.2202)" class="st1" cx="175.4" cy="365.1" rx="21.8" ry="118"/>
	<path class="st2" d="M232.3,254.7c-10.9-4-19.8-16-19.8-26.9l0-184.2c0-10.9,8.9-16.5,19.8-12.5l80,29.2c10.9,4,19.8,16,19.8,26.9
		l0,184.2c0,10.9-8.9,16.5-19.8,12.5L232.3,254.7z"/>
	<path class="st3" d="M233.6,260.7c-11.5-4.2-20.8-16.9-20.8-28.3l0-194.2c0-11.4,9.3-17.3,20.8-13.2l84.3,30.7
		c11.5,4.2,20.8,16.9,20.8,28.3l0,194.2c0,11.4-9.3,17.3-20.8,13.2L233.6,260.7z"/>
	<path class="st4" d="M232.3,247.2c-6.8-2.5-12.3-9.9-12.3-16.7l0-184.2c0-6.7,5.5-10.2,12.3-7.7l80,29.2
		c6.8,2.5,12.3,9.9,12.3,16.7l0,184.2c0,6.7-5.5,10.2-12.3,7.7L232.3,247.2z"/>
	<path class="st5" d="M312.3,67.7l-80-29.2c-4.8-1.7-8.9-0.5-10.9,2.8c2.2-1.1,5-1.2,8-0.1l80,29.2c6.8,2.5,12.3,9.9,12.3,16.7
		l0,184.2c0,2-0.5,3.6-1.3,5c2.6-1.3,4.2-4,4.2-7.7l0-184.2C324.6,77.7,319.1,70.2,312.3,67.7z"/>
	<path class="st3" d="M309.1,93.1l-73.5-26.8c-3.9-1.4-7.1,0.6-7.1,4.5v33.1c0,3.9,3.2,8.3,7.1,9.7l73.5,26.8
		c3.9,1.4,7.1-0.6,7.1-4.5l0-33.1C316.2,98.8,313,94.5,309.1,93.1z"/>
	<path class="st3" d="M309.1,151.3l-73.5-26.8c-3.9-1.4-7.1,0.6-7.1,4.5v33.1c0,3.9,3.2,8.3,7.1,9.7l73.5,26.8
		c3.9,1.4,7.1-0.6,7.1-4.5V161C316.2,157.1,313,152.8,309.1,151.3z"/>
	<path class="st3" d="M309.1,210.2l-73.5-26.8c-3.9-1.4-7.1,0.6-7.1,4.5v33.1c0,3.9,3.2,8.3,7.1,9.7l73.5,26.8
		c3.9,1.4,7.1-0.6,7.1-4.5v-33.1C316.2,216,313,211.6,309.1,210.2z"/>
	<g>
		<path class="st4" d="M285.5,98.6l-25.4-9.3c-0.9-0.3-1.6,0.1-1.6,1l0,0c0,0.9,0.7,1.8,1.6,2.1l25.4,9.3c0.9,0.3,1.6-0.1,1.6-1l0,0
			C287.1,99.9,286.4,98.9,285.5,98.6z"/>
		<path class="st4" d="M285.5,116l-25.4-9.3c-0.9-0.3-1.6,0.1-1.6,1l0,0c0,0.9,0.7,1.8,1.6,2.1l25.4,9.3c0.9,0.3,1.6-0.1,1.6-1l0,0
			C287.1,117.3,286.4,116.3,285.5,116z"/>
		<path class="st4" d="M293.3,110.3l-42-15.3c-0.9-0.3-1.6,0.1-1.6,1l0,0c0,0.9,0.7,1.8,1.6,2.1l42,15.3c0.9,0.3,1.6-0.1,1.6-1l0,0
			C294.9,111.5,294.2,110.6,293.3,110.3z"/>
	</g>
	<g>
		<path class="st4" d="M285.5,161.1l-25.4-9.3c-0.9-0.3-1.6,0.1-1.6,1l0,0c0,0.9,0.7,1.8,1.6,2.1l25.4,9.3c0.9,0.3,1.6-0.1,1.6-1
			l0,0C287.1,162.3,286.4,161.4,285.5,161.1z"/>
		<path class="st4" d="M293.3,172.8l-42-15.3c-0.9-0.3-1.6,0.1-1.6,1l0,0c0,0.9,0.7,1.8,1.6,2.1l42,15.3c0.9,0.3,1.6-0.1,1.6-1l0,0
			C294.9,174,294.2,173.1,293.3,172.8z"/>
	</g>
	<g>
		<path class="st4" d="M285.5,215.7l-25.4-9.3c-0.9-0.3-1.6,0.1-1.6,1l0,0c0,0.9,0.7,1.8,1.6,2.1l25.4,9.3c0.9,0.3,1.6-0.1,1.6-1
			l0,0C287.1,217,286.4,216,285.5,215.7z"/>
		<path class="st4" d="M285.5,233l-25.4-9.3c-0.9-0.3-1.6,0.1-1.6,1l0,0c0,0.9,0.7,1.8,1.6,2.1l25.4,9.3c0.9,0.3,1.6-0.1,1.6-1l0,0
			C287.1,234.2,286.4,233.3,285.5,233z"/>
		<path class="st4" d="M293.3,227.4l-42-15.3c-0.9-0.3-1.6,0.1-1.6,1l0,0c0,0.9,0.7,1.8,1.6,2.1l42,15.3c0.9,0.3,1.6-0.1,1.6-1l0,0
			C294.9,228.6,294.2,227.7,293.3,227.4z"/>
	</g>
	<g>
		<path class="st6" d="M213.1,359.9c0,0-3.8-1.4-4.3-9.8h-11.2l-1.1,11.6l8.3,7l7.3-3.6L213.1,359.9z"/>
		<path class="st7" d="M196.5,361.7c0,0,13.1,4.3,16.6-1.8c0,0,24.1,9,24,11.7c-0.3,4.2-20.2,5.1-24.6,4l-3.8-3.8l-1.7,4.4h-11
			C195.9,376.2,196,362.4,196.5,361.7z"/>
		<path class="st6" d="M171.3,360c0,0-3.8-1.5-3.9-10l-11.2-0.5l-1.6,11.5l8,7.3l7.4-3.3L171.3,360z"/>
		<path class="st7" d="M154.7,361c0,0,12.8,4.9,16.7-1c0,0,21.1,7.6,22.3,11.1c1.2,3.5-19.4,5.8-23.7,4.6l-3.6-4l-1.9,4.3l-11-0.5
			C153.4,375.5,154.1,361.7,154.7,361z"/>
		<path class="st3" d="M147.1,227.4c0,0,7.3,29.5,9,34.4c1.8,4.9,5.5,28.9,5.7,29.7c0.2,0.8-8.2,62.4-8.2,62.4s11.4,2.6,15.9-0.4
			l12.4-62.2l-5.3-61.3L147.1,227.4z"/>
		<path class="st3" d="M148.7,225.8c0,0,11.2,19.1,21.2,27.7c10,8.5,22.4,31.5,22.4,31.5l1.5,68.3l0,0c4.8,2.9,10.8,3.1,15.7,0.4
			l0.8-0.4c0,0,1.8-71,1.5-75.7c-0.3-4.7-25.3-58.9-25.3-58.9L148.7,225.8z"/>
		<path class="st8" d="M192,100.3c0,0-8.8,30.9-22.8,30c-12.3-0.8-14.6-13.6-11.6-29.3c3.1-16.3,16.6-14.2,24.4-14.3
			c0,0,9.7,0,11.3-7.5C193.3,79.3,204.6,94.8,192,100.3"/>
		<path class="st9" d="M169.6,138.1c0,0-17.1-3-25.1,33.6c-3.3,15.4,14.1,39.5,14.1,39.5l18.3-35.2L169.6,138.1z"/>
		<path class="st6" d="M241.6,117.3c0,0,6.5-17.8,6.5-22.7c0-4.9,3.7-0.6,3.5,3.1c-0.1,3.7-1,7.8-1,7.8s5,0.4,5,2.8
			c0,2.4-1.6,10.6-4,11.9L241.6,117.3z"/>
		<path class="st10" d="M179.2,140.6c11.4,5.9,35.8,21.2,41.4,16.2c5.6-5,21.1-39.5,21.1-39.5l10,2.9c0,0-21.4,57.4-27.7,57.3
			c-6.3-0.1-27.9-4.3-27.9-4.3s-2,40.6-7.9,51.7c0,0-29,10.5-44,1.9c0,0,12.4-15.9,9.1-39.3C149.9,163,156.4,128.8,179.2,140.6z"/>
		<g>
			<path class="st11" d="M192,100.3c0,0,1,5.4,2.7,8c1.6,2.5,5.2,5,5.2,5l-2.8,3.5c0,0,2.1,12.4-11,14.7l-1.3,12.2l-14.9-5l-0.6-8.4
				c0,0,2.4-2.6,2.6-5.3c0,0-2.9-2.9-2-6.3c1-3.4,4-6,5.4-4.7c1.4,1.3,1.5,3.8,1.5,3.8h1.9c0,0-0.3-5.6,0.8-8
				C180.9,106.8,184.9,102,192,100.3z"/>
			<path class="st6" d="M184.6,143.8l1.3-12.2c13.1-2.4,11-14.7,11-14.7l2.8-3.5c0,0-3.5-2.5-5.2-5c-1.6-2.5-2.7-8-2.7-8
				c-0.6,0.1-1.1,0.3-1.7,0.5c0.9,2.6,2.3,6.8,2.6,10.8c0.5,6.3-0.5,13.5-9.4,18.8c-3,1.8-4.1,6.8-4.4,11.4L184.6,143.8z"/>
		</g>
	</g>
	<path class="st3" d="M179.7,266.4c-9.8-2.2-19-8.1-26.2-13.8c-2.3-8.8-5.3-20.9-6.2-24.3c1.1,0.4,2.3,0.7,3.5,1
		c3.7,5.9,11.7,17.9,19,24.2c3.1,2.7,6.5,6.8,9.7,11.2L179.7,266.4z"/>
	<path class="st1" d="M318.2,332.7c-0.1-4.7-23-12.7-51.1-17.9c-28.1-5.2-50.7-5.7-50.6-1.1c0.1,4.7,23,12.7,51.1,17.9
		C295.7,336.9,318.3,337.4,318.2,332.7z"/>
	<g>
		<circle class="st10" cx="178.6" cy="45.4" r="15.9"/>
		<g>
			<g>
				<path class="st12" d="M165.3,45.6c0-7.4,6-13.4,13.4-13.4c7.4,0,13.4,6,13.4,13.4c0,6.8-5,12.4-11.6,13.3v-3.2
					c4.8-0.9,8.4-5.1,8.4-10.1c0-5.7-4.6-10.3-10.3-10.3c-5.7,0-10.3,4.6-10.3,10.3c0,4.9,3.5,9,8.1,10.1v3.2
					C170.1,57.8,165.3,52.3,165.3,45.6z"/>
				
					<rect x="173.1" y="55.7" transform="matrix(-1 -1.224647e-16 1.224647e-16 -1 349.6071 127.6137)" class="st12" width="3.3" height="16.3"/>
				
					<rect x="177.7" y="64.2" transform="matrix(-1.836970e-16 1 -1 -1.836970e-16 249.7282 -108.9812)" class="st12" width="3.3" height="12.4"/>
				<rect x="182.2" y="63.9" class="st12" width="3.3" height="3.3"/>
				<path class="st12" d="M190.6,57.8c3-2.8,4.9-6.7,5.3-11.1h2.6c-0.3,5.1-2.6,9.6-6,12.9L190.6,57.8z"/>
				<path class="st12" d="M173.1,61.6c1.1,0.4,2.2,0.6,3.3,0.8v2.7c-1.1-0.1-2.3-0.4-3.3-0.7V61.6z"/>
				<path class="st12" d="M158.9,45.4c0-11,8.9-19.8,19.8-19.8c10.4,0,19,8,19.8,18.3h-2.6c-0.8-8.8-8.2-15.6-17.1-15.6
					c-9.5,0-17.2,7.7-17.2,17.2c0,7,4.2,13,10.1,15.7v2.9C164.2,61,158.9,53.8,158.9,45.4z"/>
				<path class="st12" d="M182.2,64.9v-2.7c2.2-0.5,4.2-1.3,6-2.5l1.9,1.9C187.8,63.2,185.1,64.4,182.2,64.9z"/>
			</g>
			<polygon class="st12" points="175.5,74.1 175.5,73.6 183.2,73.6 183.2,74.1 180.9,76.4 177.8,76.4 			"/>
		</g>
		<circle class="st12" cx="178.9" cy="45.7" r="3.4"/>
	</g>
	<g>
		<g>
			<g>
				<polygon class="st10" points="163.1,27.6 145.2,11.5 150.8,5.8 165.4,25.4 				"/>
			</g>
			<g>
				<polygon class="st10" points="172.7,20.9 165.9,3.3 171.6,2.7 174.8,20.1 				"/>
			</g>
			<g>
				<polygon class="st10" points="158.7,34.2 140.1,26.1 139.8,33.1 157.8,36.7 				"/>
			</g>
		</g>
	</g>
</g>
</svg>
