<?xml version="1.0" encoding="utf-8"?>
<!-- Generator: Adobe Illustrator 22.1.0, SVG Export Plug-In . SVG Version: 6.00 Build 0)  -->
<svg version="1.1" id="Layer_1" xmlns="http://www.w3.org/2000/svg" xmlns:xlink="http://www.w3.org/1999/xlink" x="0px" y="0px"
	 viewBox="0 0 400 400" style="enable-background:new 0 0 400 400;" xml:space="preserve">
<style type="text/css">
	.st0{fill:#F5D609;}
	.st1{fill:#1D1851;}
</style>
<g>
	<circle class="st0" cx="201" cy="156" r="120.7"/>
	<g>
		<g>
			<path class="st1" d="M99.6,157.4c0-56.4,45.7-102.1,102.1-102.1c56.4,0,102.1,45.7,102.1,102.1c0,51.5-38.2,94.1-87.8,101.1v-24
				c36.5-6.7,64.1-38.6,64.1-77c0-43.3-35.1-78.3-78.3-78.3c-43.3,0-78.3,35.1-78.3,78.3c0,37.4,26.2,68.7,61.3,76.5V258
				C136.4,249.9,99.6,208,99.6,157.4z"/>
			
				<rect x="159.1" y="234" transform="matrix(-1 -1.224647e-16 1.224647e-16 -1 343.6058 591.4724)" class="st1" width="25.3" height="123.6"/>
			
				<rect x="193.7" y="298.4" transform="matrix(-1.836970e-16 1 -1 -1.836970e-16 551.9859 139.242)" class="st1" width="25.3" height="94.5"/>
			<rect x="228.3" y="296.2" class="st1" width="25.3" height="25.3"/>
			<path class="st1" d="M292,250c22.5-21.5,37.3-51.1,39.9-84H352c-2.6,38.5-19.7,73-45.8,98.2L292,250z"/>
			<path class="st1" d="M159.1,279.1c8.1,2.8,16.6,4.8,25.3,6v20.2c-8.7-1-17.2-2.7-25.3-5.1V279.1z"/>
			<path class="st1" d="M51.1,155.6C51.1,72.4,118.5,5,201.7,5c79.1,0,144,61.1,150.1,138.6h-20.1c-6-66.5-62-118.6-130-118.6
				C129.6,25,71.1,83.5,71.1,155.6c0,53,31.5,98.6,76.8,119.1v21.7C91.3,274.7,51.1,219.9,51.1,155.6z"/>
			<path class="st1" d="M228.3,303.9v-20.4c16.6-3.4,32.1-10,45.7-19.1l14.4,14.4C270.8,291.2,250.3,300,228.3,303.9z"/>
		</g>
		<polygon class="st1" points="177.2,374.2 177.2,369.9 235.6,369.9 235.6,373.9 218,391.5 194.5,391.5 		"/>
	</g>
	<circle class="st1" cx="202.7" cy="158.2" r="25.6"/>
</g>
</svg>
