<?xml version="1.0" encoding="utf-8"?>
<!-- Generator: Adobe Illustrator 22.1.0, SVG Export Plug-In . SVG Version: 6.00 Build 0)  -->
<svg version="1.1" id="Layer_1" xmlns="http://www.w3.org/2000/svg" xmlns:xlink="http://www.w3.org/1999/xlink" x="0px" y="0px"
	 viewBox="0 0 400 400" style="enable-background:new 0 0 400 400;" xml:space="preserve">
<style type="text/css">
	.st0{opacity:0.1;}
	.st1{clip-path:url(#SVGID_2_);}
	.st2{fill:#898989;}
	.st3{opacity:0.42;fill:url(#SVGID_3_);}
	.st4{opacity:0.42;fill:url(#SVGID_4_);}
	.st5{opacity:0.42;fill:url(#SVGID_5_);}
	.st6{fill:#1D1852;}
</style>
<g class="st0">
	<defs>
		<rect id="SVGID_1_" x="-0.4" y="-99" class="st0" width="384.4" height="544.9"/>
	</defs>
	<clipPath id="SVGID_2_">
		<use xlink:href="#SVGID_1_"  style="overflow:visible;"/>
	</clipPath>
	<g class="st1">
		<g>
			<path class="st2" d="M-88.2,164.2c0-47.4,38.4-85.8,85.8-85.8c47.4,0,85.8,38.4,85.8,85.8c0,43.3-32.1,79.1-73.8,85v-20.2
				c30.6-5.6,53.9-32.5,53.9-64.8c0-36.4-29.5-65.8-65.8-65.8c-36.4,0-65.8,29.5-65.8,65.8c0,31.4,22,57.7,51.5,64.3v20.3
				C-57.3,241.9-88.2,206.7-88.2,164.2z"/>
			
				<rect x="-38.2" y="228.5" transform="matrix(-1 8.514266e-14 -8.514266e-14 -1 -55.1034 560.8988)" class="st2" width="21.3" height="103.9"/>
			
				<rect x="-9.1" y="282.7" transform="matrix(-1.836970e-16 1 -1 -1.836970e-16 323.8824 320.8694)" class="st2" width="21.3" height="79.4"/>
			<rect x="19.9" y="280.9" class="st2" width="21.3" height="21.3"/>
			<path class="st2" d="M73.5,242c18.9-18.1,31.4-42.9,33.5-70.6h16.9c-2.2,32.4-16.5,61.4-38.5,82.5L73.5,242z"/>
			<path class="st2" d="M-38.2,266.5c6.8,2.4,13.9,4.1,21.3,5v17c-7.3-0.8-14.4-2.3-21.3-4.3V266.5z"/>
			<path class="st2" d="M-129,162.7C-129,92.7-72.3,36.1-2.4,36.1c66.5,0,121.1,51.3,126.2,116.5h-16.9
				C101.8,96.7,54.8,52.9-2.4,52.9c-60.6,0-109.8,49.1-109.8,109.8c0,44.5,26.5,82.8,64.6,100.1V281
				C-95.2,262.8-129,216.7-129,162.7z"/>
			<path class="st2" d="M19.9,287.3v-17.1c14-2.9,26.9-8.4,38.4-16l12.1,12.1C55.6,276.7,38.5,284,19.9,287.3z"/>
		</g>
		<polygon class="st2" points="-23,346.4 -23,342.7 26.1,342.7 26.1,346.2 11.3,361 -8.5,361 		"/>
	</g>
</g>
<linearGradient id="SVGID_3_" gradientUnits="userSpaceOnUse" x1="70.234" y1="121.1435" x2="70.234" y2="54.9835">
	<stop  offset="0" style="stop-color:#FFFFFF"/>
	<stop  offset="9.162324e-02" style="stop-color:#FFFEF8"/>
	<stop  offset="0.2223" style="stop-color:#FEFBE6"/>
	<stop  offset="0.3764" style="stop-color:#FCF5C7"/>
	<stop  offset="0.5485" style="stop-color:#FAEE9C"/>
	<stop  offset="0.7354" style="stop-color:#F7E465"/>
	<stop  offset="0.9318" style="stop-color:#F4D823"/>
	<stop  offset="1" style="stop-color:#F3D40A"/>
</linearGradient>
<path class="st3" d="M51.7,125.7h37c8.2-5.7,13.6-15.1,13.6-25.7c0-17.3-14.4-33.9-32.1-33.9c-17.8,0-32.1,16.6-32.1,33.9
	C38.1,110.6,43.5,120,51.7,125.7z"/>
<linearGradient id="SVGID_4_" gradientUnits="userSpaceOnUse" x1="68.2758" y1="198.4934" x2="68.2758" y2="132.3333">
	<stop  offset="0" style="stop-color:#FFFFFF"/>
	<stop  offset="9.162324e-02" style="stop-color:#FFFEF8"/>
	<stop  offset="0.2223" style="stop-color:#FEFBE6"/>
	<stop  offset="0.3764" style="stop-color:#FCF5C7"/>
	<stop  offset="0.5485" style="stop-color:#FAEE9C"/>
	<stop  offset="0.7354" style="stop-color:#F7E465"/>
	<stop  offset="0.9318" style="stop-color:#F4D823"/>
	<stop  offset="1" style="stop-color:#F3D40A"/>
</linearGradient>
<path class="st4" d="M49.8,203.1h37c8.2-5.7,13.6-15.1,13.6-25.7c0-17.3-14.4-33.9-32.1-33.9c-17.8,0-32.1,16.6-32.1,33.9
	C36.1,188,41.5,197.4,49.8,203.1z"/>
<linearGradient id="SVGID_5_" gradientUnits="userSpaceOnUse" x1="68.1126" y1="275.8432" x2="68.1126" y2="209.6832">
	<stop  offset="0" style="stop-color:#FFFFFF"/>
	<stop  offset="9.162324e-02" style="stop-color:#FFFEF8"/>
	<stop  offset="0.2223" style="stop-color:#FEFBE6"/>
	<stop  offset="0.3764" style="stop-color:#FCF5C7"/>
	<stop  offset="0.5485" style="stop-color:#FAEE9C"/>
	<stop  offset="0.7354" style="stop-color:#F7E465"/>
	<stop  offset="0.9318" style="stop-color:#F4D823"/>
	<stop  offset="1" style="stop-color:#F3D40A"/>
</linearGradient>
<path class="st5" d="M49.6,280.4h37c8.2-5.7,13.6-15.1,13.6-25.7c0-17.3-14.4-33.9-32.1-33.9c-17.8,0-32.1,16.6-32.1,33.9
	C36,265.3,41.4,274.7,49.6,280.4z"/>
<g>
	<path class="st6" d="M87.6,96c0,0.8,0,1.5,0,2.3c0,0.1-0.1,0.2-0.1,0.3c-0.2,2.5-0.8,4.8-2,7c-2.8,5.3-7.2,8.5-13.1,9.7
		c-0.7,0.1-1.4,0.2-2.1,0.3c-0.8,0-1.5,0-2.3,0c-0.4,0-0.7-0.1-1.1-0.1c-4.5-0.6-8.4-2.5-11.4-5.9c-3.7-4.1-5.3-9-4.6-14.6
		c0.5-4.5,2.5-8.4,5.9-11.4c4.3-3.9,9.4-5.4,15.1-4.6c7.7,1.1,14,7.3,15.3,15C87.5,94.6,87.5,95.3,87.6,96z M52.9,97.2
		c0,9,7.3,16.3,16.3,16.3c9,0.1,16.3-7.3,16.3-16.3c0-9-7.3-16.3-16.3-16.3C60.3,80.8,52.9,88.2,52.9,97.2z"/>
	<path class="st6" d="M60.3,97.1c0-2.2,0-4.4,0-6.5c0-1.5,0.9-2.4,2.4-2.4c4.3,0,8.7,0,13,0c1.5,0,2.4,0.9,2.4,2.4
		c0,4.4,0,8.8,0,13.2c0,1.5-0.9,2.4-2.4,2.4c-4.3,0-8.7,0-13,0c-1.5,0-2.4-0.9-2.4-2.4C60.3,101.5,60.3,99.3,60.3,97.1z M62.4,97.2
		c0,2.2,0,4.3,0,6.5c0,0.3,0.1,0.4,0.4,0.4c4.3,0,8.6,0,12.9,0c0.3,0,0.4-0.1,0.4-0.4c0-4.3,0-8.7,0-13c0-0.3-0.1-0.4-0.4-0.4
		c-4.3,0-8.6,0-12.9,0c-0.3,0-0.4,0.1-0.4,0.4C62.4,92.8,62.4,95,62.4,97.2z"/>
	<path class="st6" d="M69.2,102.7c-1.7,0-3.4,0-5.1,0c-0.3,0-0.4-0.1-0.4-0.4c0-1.8,0-3.7,0-5.5c0-0.3,0.1-0.4,0.4-0.4
		c0.3,0,0.7,0,1,0c0.2,0,0.3,0.1,0.3,0.3c0,0.6,0,1.1,0,1.7c0.1,2,1.8,3.5,3.8,3.5c2,0,3.6-1.5,3.8-3.5c0-0.5,0-1.1,0-1.7
		c0-0.3,0.1-0.4,0.4-0.4c0.3,0,0.7,0,1,0c0.2,0,0.3,0.1,0.3,0.3c0,1.9,0,3.8,0,5.8c0,0.3-0.2,0.3-0.4,0.3
		C72.6,102.7,70.9,102.7,69.2,102.7z"/>
	<path class="st6" d="M69.2,95.7c1.3,0,2.4,1.1,2.4,2.4c0,1.3-1.1,2.4-2.4,2.4c-1.3,0-2.4-1.1-2.4-2.4
		C66.8,96.7,67.9,95.7,69.2,95.7z"/>
	<path class="st6" d="M74.7,94c-0.8,0-1.6,0-2.4,0c0-0.7,0-1.4,0-2.2c0.3,0,0.7,0,1,0c0.5,0,0.9,0,1.4,0.1c0,0.5,0,0.9,0,1.4
		C74.7,93.5,74.7,93.7,74.7,94z"/>
</g>
<g>
	<path class="st6" d="M86.5,172.7c0,0.8,0,1.5,0,2.3c0,0.1-0.1,0.2-0.1,0.3c-0.2,2.5-0.8,4.8-2,7c-2.8,5.3-7.2,8.5-13.1,9.7
		c-0.7,0.1-1.4,0.2-2.1,0.3c-0.8,0-1.5,0-2.3,0c-0.4,0-0.7-0.1-1.1-0.1c-4.5-0.6-8.4-2.5-11.4-5.9c-3.7-4.1-5.3-9-4.6-14.6
		c0.5-4.5,2.5-8.4,5.9-11.4c4.3-3.9,9.4-5.4,15.1-4.6c7.7,1.1,14,7.3,15.3,15C86.3,171.3,86.4,172,86.5,172.7z M51.8,173.9
		c0,9,7.3,16.3,16.3,16.3c9,0.1,16.3-7.3,16.3-16.3c0-9-7.3-16.3-16.3-16.3C59.1,157.5,51.8,164.9,51.8,173.9z"/>
	<path class="st6" d="M59.1,173.8c0-2.2,0-4.4,0-6.5c0-1.5,0.9-2.4,2.4-2.4c4.3,0,8.7,0,13,0c1.5,0,2.4,0.9,2.4,2.4
		c0,4.4,0,8.8,0,13.2c0,1.5-0.9,2.4-2.4,2.4c-4.3,0-8.7,0-13,0c-1.5,0-2.4-0.9-2.4-2.4C59.1,178.2,59.1,176,59.1,173.8z M61.2,173.9
		c0,2.2,0,4.3,0,6.5c0,0.3,0.1,0.4,0.4,0.4c4.3,0,8.6,0,12.9,0c0.3,0,0.4-0.1,0.4-0.4c0-4.3,0-8.7,0-13c0-0.3-0.1-0.4-0.4-0.4
		c-4.3,0-8.6,0-12.9,0c-0.3,0-0.4,0.1-0.4,0.4C61.2,169.5,61.2,171.7,61.2,173.9z"/>
	<path class="st6" d="M68,179.3c-1.7,0-3.4,0-5.1,0c-0.3,0-0.4-0.1-0.4-0.4c0-1.8,0-3.7,0-5.5c0-0.3,0.1-0.4,0.4-0.4
		c0.3,0,0.7,0,1,0c0.2,0,0.3,0.1,0.3,0.3c0,0.6,0,1.1,0,1.7c0.1,2,1.8,3.5,3.8,3.5c2,0,3.6-1.5,3.8-3.5c0-0.5,0-1.1,0-1.7
		c0-0.3,0.1-0.4,0.4-0.4c0.3,0,0.7,0,1,0c0.2,0,0.3,0.1,0.3,0.3c0,1.9,0,3.8,0,5.8c0,0.3-0.2,0.3-0.4,0.3
		C71.5,179.3,69.7,179.3,68,179.3z"/>
	<path class="st6" d="M68.1,172.4c1.3,0,2.4,1.1,2.4,2.4c0,1.3-1.1,2.4-2.4,2.4c-1.3,0-2.4-1.1-2.4-2.4
		C65.7,173.4,66.8,172.4,68.1,172.4z"/>
	<path class="st6" d="M73.6,170.7c-0.8,0-1.6,0-2.4,0c0-0.7,0-1.4,0-2.2c0.3,0,0.7,0,1,0c0.5,0,0.9,0,1.4,0.1c0,0.5,0,0.9,0,1.4
		C73.6,170.2,73.6,170.4,73.6,170.7z"/>
</g>
<g>
	<path class="st6" d="M88.3,249.7c0,0.8,0,1.5,0,2.3c0,0.1-0.1,0.2-0.1,0.3c-0.2,2.5-0.8,4.8-2,7c-2.8,5.3-7.2,8.5-13.1,9.7
		c-0.7,0.1-1.4,0.2-2.1,0.3c-0.8,0-1.5,0-2.3,0c-0.4,0-0.7-0.1-1.1-0.1c-4.5-0.6-8.4-2.5-11.4-5.9c-3.7-4.1-5.3-9-4.6-14.6
		c0.5-4.5,2.5-8.4,5.9-11.4c4.3-3.9,9.4-5.4,15.1-4.6c7.7,1.1,14,7.3,15.3,15C88.1,248.3,88.2,249,88.3,249.7z M53.5,250.9
		c0,9,7.3,16.3,16.3,16.3c9,0.1,16.3-7.3,16.3-16.3c0-9-7.3-16.3-16.3-16.3C60.9,234.5,53.6,241.9,53.5,250.9z"/>
	<path class="st6" d="M60.9,250.8c0-2.2,0-4.4,0-6.5c0-1.5,0.9-2.4,2.4-2.4c4.3,0,8.7,0,13,0c1.5,0,2.4,0.9,2.4,2.4
		c0,4.4,0,8.8,0,13.2c0,1.5-0.9,2.4-2.4,2.4c-4.3,0-8.7,0-13,0c-1.5,0-2.4-0.9-2.4-2.4C60.9,255.3,60.9,253.1,60.9,250.8z M63,250.9
		c0,2.2,0,4.3,0,6.5c0,0.3,0.1,0.4,0.4,0.4c4.3,0,8.6,0,12.9,0c0.3,0,0.4-0.1,0.4-0.4c0-4.3,0-8.7,0-13c0-0.3-0.1-0.4-0.4-0.4
		c-4.3,0-8.6,0-12.9,0c-0.3,0-0.4,0.1-0.4,0.4C63,246.6,63,248.7,63,250.9z"/>
	<path class="st6" d="M69.8,256.4c-1.7,0-3.4,0-5.1,0c-0.3,0-0.4-0.1-0.4-0.4c0-1.8,0-3.7,0-5.5c0-0.3,0.1-0.4,0.4-0.4
		c0.3,0,0.7,0,1,0c0.2,0,0.3,0.1,0.3,0.3c0,0.6,0,1.1,0,1.7c0.1,2,1.8,3.5,3.8,3.5c2,0,3.6-1.5,3.8-3.5c0-0.5,0-1.1,0-1.7
		c0-0.3,0.1-0.4,0.4-0.4c0.3,0,0.7,0,1,0c0.2,0,0.3,0.1,0.3,0.3c0,1.9,0,3.8,0,5.8c0,0.3-0.2,0.3-0.4,0.3
		C73.3,256.4,71.5,256.4,69.8,256.4z"/>
	<path class="st6" d="M69.9,249.4c1.3,0,2.4,1.1,2.4,2.4c0,1.3-1.1,2.4-2.4,2.4c-1.3,0-2.4-1.1-2.4-2.4
		C67.5,250.4,68.6,249.4,69.9,249.4z"/>
	<path class="st6" d="M75.4,247.7c-0.8,0-1.6,0-2.4,0c0-0.7,0-1.4,0-2.2c0.3,0,0.7,0,1,0c0.5,0,0.9,0,1.4,0.1c0,0.5,0,0.9,0,1.4
		C75.4,247.2,75.4,247.5,75.4,247.7z"/>
</g>
</svg>
