<?xml version="1.0" encoding="utf-8"?>
<!-- Generator: Adobe Illustrator 22.1.0, SVG Export Plug-In . SVG Version: 6.00 Build 0)  -->
<svg version="1.1" id="Layer_1" xmlns="http://www.w3.org/2000/svg" xmlns:xlink="http://www.w3.org/1999/xlink" x="0px" y="0px"
	 viewBox="0 0 700 700" style="enable-background:new 0 0 700 700;" xml:space="preserve">
<style type="text/css">
	.st0{fill:none;stroke:url(#SVGID_1_);stroke-width:2;stroke-linecap:round;stroke-linejoin:round;stroke-miterlimit:10;}
	.st1{fill:#D6B40D;}
	.st2{fill:#D9DFFF;}
	.st3{fill:#F3D40A;}
	.st4{fill:#BEBEBF;}
	.st5{fill:#CACBCE;}
	.st6{fill:#3E4261;}
	.st7{fill:#30334D;}
	.st8{fill:#1D1852;}
	.st9{fill:#FFBA76;}
	.st10{fill:#97B5BA;}
	.st11{fill:#1B1F30;}
	.st12{fill:#EDA86A;}
	.st13{fill:#CA9D25;}
	.st14{fill:#F9C430;}
	.st15{fill:#FFD334;}
	.st16{fill:#C1E9ED;}
	.st17{fill:#6D6D6D;}
	.st18{fill:#DA9961;}
	.st19{fill:#AFAFAF;}
	.st20{fill:url(#SVGID_2_);}
	.st21{fill:url(#SVGID_3_);}
	.st22{fill:url(#SVGID_4_);}
</style>
<g>
	<g>
		<linearGradient id="SVGID_1_" gradientUnits="userSpaceOnUse" x1="569.4589" y1="290.2665" x2="569.4589" y2="290.2665">
			<stop  offset="0" style="stop-color:#E400FB"/>
			<stop  offset="0.3711" style="stop-color:#8200FC"/>
			<stop  offset="0.4224" style="stop-color:#7C10FC"/>
			<stop  offset="0.5221" style="stop-color:#6D39FB"/>
			<stop  offset="0.659" style="stop-color:#537AFA"/>
			<stop  offset="0.7655" style="stop-color:#3EB2FA"/>
			<stop  offset="1" style="stop-color:#3EB2FA;stop-opacity:0"/>
		</linearGradient>
		<path class="st0" d="M569.5,290.3"/>
		<g>
			<g>
				<g>
					<path class="st1" d="M302.8,405.2h-9.3v-21.9h9.3c4.5,0,8.1,3.6,8.1,8.1v5.6C311,401.5,307.3,405.2,302.8,405.2z M296.8,402
						h6.1c2.7,0,4.9-2.2,4.9-4.9v-5.6c0-2.7-2.2-4.9-4.9-4.9h-6.1V402z"/>
				</g>
			</g>
			<g>
				<path class="st2" d="M291.8,274.3c-4.5,1.3-7.6,3.9-9.8,6.9c-2.2,3-3.6,6.5-4.1,9.8c-1,7,0.8,14.6,3.2,22.7
					c0.6,2.1,1.3,4.1,1.9,6.3c0.6,2.2,1.3,4.4,1.8,6.7c1.1,4.6,2,9.5,1.9,14.6c0,5.2-1.1,10.4-3.4,15c-2.3,4.6-6,8.7-10.7,10.6
					l-1-1.1c2.4-3.9,3.4-7.9,3.8-11.8c0.3-3.9-0.1-7.9-0.9-11.6c-1.7-7.7-5.3-15.4-8.1-24.5c-0.7-2.3-1.3-4.6-1.8-7.1
					c-0.4-2.4-0.8-4.9-1-7.5c-0.3-5.1,0.3-10.6,2.3-15.7c2.1-5.3,5.8-9.7,10.5-12.5c2.3-1.4,4.9-2.5,7.6-2.9
					c2.7-0.5,5.4-0.3,7.8,0.6L291.8,274.3z"/>
			</g>
			<path class="st3" d="M286.5,376.8h-24.5v28.1c0,2.8,1.2,5.2,3.2,6.9c1.6,1.4,3.7,2.2,6,2.2H286c5.1,0,9.2-4.1,9.2-9.2v-28.1
				H286.5z"/>
			<path class="st1" d="M286.5,376.8v25.8c0,5.1-4.1,9.2-9.2,9.2h-12.2c1.6,1.4,3.7,2.2,6,2.2H286c5.1,0,9.2-4.1,9.2-9.2v-28.1
				H286.5z"/>
		</g>
		<g>
			<rect x="453.3" y="498.4" class="st4" width="8.9" height="139.7"/>
			<path class="st5" d="M468,502.7l-97.8-1.3L362,360.9c-1-18,13.4-33,31.4-32.9l58.3-0.6c25.6,0,39.2,23.6,35.5,48.9L468,502.7z"/>
			<path class="st4" d="M468.2,502.9H344.8v-23.6c0-7.9,6.4-14.2,14.2-14.2h94.8c7.9,0,14.2,6.4,14.2,14.2V502.9z"/>
			<rect x="350.8" y="498.4" class="st4" width="8.9" height="139.7"/>
		</g>
		<g>
			<path class="st6" d="M441.8,254.1c9.1-0.6,18.2,5,21.8,13.3c6.9,16.1-6.5,34.9-1.4,51.6c2.1,6.9,7.1,12.6,11.4,18.4
				c4.3,5.8,8.1,12.8,7.3,20c-0.9,7.7-7.5,14.1-15.1,16c-7.6,1.9-15.8-0.3-22.3-4.6s-11.5-10.5-15.6-17.2
				c-14-23.1-20.4-60.8-4.8-84.7C427.6,260.2,433.1,254.7,441.8,254.1z"/>
			<path class="st7" d="M429.3,275.9c8.7-0.6,17.6,4.5,21,12c6.6,14.4-6.2,31.4-1.4,46.5c2,6.3,6.8,11.3,11,16.6
				c4.1,5.3,7.8,11.5,7,18c-0.9,7-7.3,12.7-14.5,14.4c-7.3,1.7-15.2-0.2-21.5-4.1c-6.3-3.9-11.1-9.5-15-15.5
				c-13.5-20.8-19.7-54.7-4.6-76.2C415.6,281.4,420.9,276.4,429.3,275.9z"/>
		</g>
		<g>
			<path class="st8" d="M454.3,442h-74.9c-0.2,0-0.4-0.2-0.4-0.4v-96.6c0-7.9,6.4-14.4,14.4-14.4h47c7.9,0,14.4,6.4,14.4,14.4v96.6
				C454.8,441.8,454.6,442,454.3,442z"/>
			<g>
				<path class="st9" d="M464.8,360.3c0,0,27.5,31.9,21.5,52c0,0,0,10.4-42.7-0.4l-36-5.9l-1.5-10c8.7-0.3,18.3-0.3,28.6,0.4
					c12,0.8,23,2.3,32.7,4.1c-2.6-2.9-5.2-6.2-7.9-9.9c-4.2-5.8-9-13.1-11-19.4L464.8,360.3z"/>
				<path class="st8" d="M432.3,333.4c0,0,26.5-3.1,48.3,49.9l-23.8,9.4c0,0-15.4-20.8-17.6-38.9C437,335.7,432.3,333.4,432.3,333.4
					z"/>
			</g>
			<g>
				<path class="st9" d="M364.1,359.8c0,0-30.7,30.7-33.7,50.2c0,0,0.4,5.8,44.4,2.7h37.8l3-7.5c-8.5-1.9-17.9-3.5-28.2-4.6
					c-12-1.3-23-1.8-32.9-1.7c3.1-2.4,6.2-5.2,9.6-8.4c5.2-4.9,11.1-11.3,14.2-17.2L364.1,359.8z"/>
				<path class="st8" d="M402.7,332.7c0,0-27.4-1.4-58.1,47l21.8,13.4c0,0,18.8-17.8,24.1-35.2C395.8,340.6,402.7,332.7,402.7,332.7
					z"/>
			</g>
		</g>
		<rect x="352.8" y="405.5" class="st10" width="95.1" height="8.5"/>
		<g>
			<path class="st7" d="M667.4,620.3c-5.7,5.5-37.8,13.7-39.9,16.8c-0.7,1.1-0.9,2.6-0.3,3.8c1.6,3.4,7.4,1.7,10.2,1.6
				c3.4-0.2,40.1-1.9,40.1-1.8l0.4,2l12.2-0.6l-0.8-22.4C689.2,619.8,679.9,620.2,667.4,620.3z"/>
			<path class="st11" d="M622.7,609.7c-5,6.2-35.9,18.1-37.6,21.5c-0.6,1.2-0.6,2.7,0.1,3.8c2,3.1,7.6,0.8,10.3,0.3
				c3.4-0.6,39.5-6.7,39.6-6.6l0.6,2l12.1-2l-3.5-22.2C644.3,606.5,635,608,622.7,609.7z"/>
			<path class="st12" d="M557.4,338.4c0,0-4.1,61.7-4.1,61.8c-0.4,6.4-10.4,5.5-14.8,6.2c-6.9,1.1-15.6,3.7-20.8,8.4
				c1.9,1,5.6,0.6,7.9,0.8c2.9,0.2,5.7,0.3,8.6,0.4c5.9,0.2,11.7,0.3,17.6,0.6c0,0,15.8-1,15.3-10.4c-0.5-9.4,11.5-66,11.5-66
				L557.4,338.4z"/>
			<path class="st13" d="M546.8,352.5l34.9,5.2l5.9-47.8c1.4-10.3,1.9-27-8.6-29c-0.2,0-2.3-0.7-2.5-0.7
				c-11.7-2-27.8,14.6-28.2,26.2L546.8,352.5z"/>
			<path class="st7" d="M632.1,387.7L591.6,483c-3.1,7.3-3.7,15.3-1.6,22.9l29.2,106.8l25.4-2.6c-1.5-16.7,0.7-69.9-8.6-86.9
				c-5-9.2-5-20.2,0.6-29.2l11.4-18.3l6.6-87.7L632.1,387.7z"/>
			<path class="st6" d="M673.2,369.3L667,353c0,0,32.1,29,27.5,55.8c-4,23.1-10.8,75.6-12.5,89.5c-0.3,2.3-0.1,4.6,0.6,6.8l7.5,23.5
				c1.8,5.5,2.6,11.3,2.4,17.1l-2.5,75h-26l-21.8-117.9c-0.3-1.4-0.4-2.7-0.4-4.1l-2-112L673.2,369.3z"/>
			<path class="st14" d="M583.6,274c19.2,4.3,62.6,25.9,96.2,93.1c4.5,8.9-7.9,19.5-14.7,23.1c-5.5,2.9-11.7,4.5-17.8,5.2
				c-3.5,0.4-7,0.6-10.6,0.6c-1.5,0-10.6,0.3-11.2-0.9c-2.3-4.6-5.4-10.7-10-17.3c-4.1-5.8-9-12.1-14.9-19.9
				c-14.1-18.5-29-31.7-40.8-40.6c-1.7-2.2-5.7-7.8-6-15.7c-0.2-5.8,1.5-12.8,7.6-20.5C566.4,274.7,575.5,272.2,583.6,274z"/>
			<path class="st9" d="M562.9,306.9l-35.5,35.9c-2.1,2.1-4.6,3.8-7.4,4.8l-56.7,21.1c-3.7,1.4-7.8,1.4-11.5,0.1l-7-2.5
				c-2.7-0.9-5.5-1.2-8.3-0.7l-28.3,5.3l0.4,3.1l23.5,0.3l3.6,6.4c2.6,4.7,8.2,7,13.5,5.7l80.8-20.5c4-1,7.6-2.9,10.8-5.5l39.6-32.7
				L562.9,306.9z"/>
			<path class="st9" d="M516.6,259.9c0.3-1,0.2-2.1-0.4-2.9c-2.4-3.6-7.7-14.3,6.9-25c0,0,26.2-16.4,37.8,9.5
				c3.3,7.4,2.4,13.9-0.4,19c-1.2,2.2,13.3,12.6,15,13.2c2,0.7,5.9,9.6-18.1,20.7c-1-1.6-1.4-1.7-3-4c-5.2-7.2-11.6-10.6-17.3-8.4
				c-2.6,1-7.4,4.5-10.2,3c-1.5-0.8-4.7-7.8-5.6-8.6l-0.4-0.4c-0.8-0.7-1.3-1.7-1.4-2.8l0-1.8l-3.6-1.6c-1.4-0.6-2.1-2.1-1.6-3.5
				L516.6,259.9z"/>
			<path class="st6" d="M545.8,258.7c1-0.1,2-0.3,3-0.4c-0.7-1.4-1.3-2.8-1.1-4.3c0.2-1.5,1.6-3,3.1-2.7c2,0.4,2.3,2.9,2.7,4.8
				c1.2,5.9,7.7,10.2,13.8,9.2c0.4-7.1,0.8-14.4-0.6-21.4c-1.4-7-4.8-13.9-10.8-18.1c-5.5-3.9-12.6-5.2-19.4-5
				c-7.2,0.2-14.4,1.8-20.9,4.8c-3,1.4-6,3.1-8.1,5.6c-2.1,2.5-3.3,5.9-2.5,9.1c1.1,4.1,5.3,6.8,9.6,7.5c4.3,0.7,8.7-0.2,12.9-1.1
				c3.4-0.7,9.7-3,12.4-0.2C540.9,247.6,544.8,258.9,545.8,258.7z"/>
			<path class="st15" d="M540.4,323.2l23.4,23.8l30.3-28.8c7.3-6.9,7.9-18.3,1.2-25.7c-0.1-0.1-0.2-0.3-0.4-0.4
				c-7.7-8.2-21.3-7.5-28.6,1L540.4,323.2z"/>
		</g>
		<path class="st16" d="M429.8,414h-78L330.9,369c-0.5-1,0.3-2.1,1.3-2.1h70.4c3.2,0,6.2,1.9,7.5,4.8L429.8,414z"/>
		<polygon class="st17" points="576.6,423.7 137.5,423.7 141,414 573.1,414 		"/>
		<g>
			<g>
				<path class="st9" d="M392.5,295.1c0,0,1.5,34,12,35.4c12.9,1.7,21.8-4.8,24-16.2c0.9-4.6-0.2-17.9-1.4-26.3
					c-0.8-5.3-6.9-10.4-12.2-11.3c-3-0.5-6.7-0.4-10.8,0.9C390.3,282.3,392.5,295.1,392.5,295.1z"/>
				<path class="st9" d="M408,323.9c0,0-0.4,8.5,0,12.3c0,0,3.8,7.3,12.3,5.6c8.4-1.7,7.1-7.2,7.1-7.2l-1.2-24.2L408,323.9z"/>
				<path class="st6" d="M443.5,290.3c-1.8-11.6-11.9-21.3-23.5-23c-8.7-1.3-17.8,1.8-24.3,7.6c-7.4,6.6-10.6,15.2-8.7,25.2
					c7,2,34.7,1.9,39.9,1.7c0.2,5.6,2.1,10.4,2.2,16C440.1,313.5,445.3,301.9,443.5,290.3z"/>
				<path class="st9" d="M432.9,310c-0.7,2.9-2.7,4.9-4.5,4.5c-1.9-0.4-2.8-3.1-2.2-6c0.7-2.9,2.7-4.9,4.5-4.5
					C432.6,304.4,433.6,307.1,432.9,310z"/>
				<path class="st6" d="M428.6,304.7l-1.3-1.5l-7.2,5.9c-0.9-2.3-3.6-4-6.8-4c-2.8,0-5.2,1.3-6.4,3.2c-1.7-0.7-3.9-0.9-5.4-0.1
					c-0.1,0.1-0.2,0.1-0.3,0.2c-1.2-2-3.7-3.3-6.5-3.3c-4,0-7.2,2.6-7.2,5.9c0,3.2,3.2,5.9,7.2,5.9s7.2-2.6,7.2-5.9
					c0-0.5,0.2-0.8,0.5-1c0.9-0.5,2.6-0.3,3.8,0.2c0,0.2-0.1,0.5-0.1,0.7c0,3.2,3.2,5.9,7.2,5.9c3.8,0,6.8-2.4,7.1-5.4L428.6,304.7z
					 M400,310.8c0,2.1-2.3,3.9-5.2,3.9c-2.9,0-5.2-1.7-5.2-3.9c0-2.1,2.3-3.9,5.2-3.9c2.4,0,4.5,1.3,5.1,3l0.3-0.1
					C400,310.2,400,310.5,400,310.8z M413.3,314.7c-2.9,0-5.2-1.7-5.2-3.9c0-2.1,2.3-3.9,5.2-3.9c2.9,0,5.2,1.7,5.2,3.9
					C418.5,313,416.2,314.7,413.3,314.7z"/>
				<path class="st18" d="M407.4,330.3l0.6,5.8c0,0,6.7,9.5,14-7.8c7.3-17.3,0.9-4.4,0.9-4.4S416.2,331.9,407.4,330.3z"/>
			</g>
			<g>
				<path class="st15" d="M439.4,279.9c0.7-1.4,1.2-2.9,1.2-4.6c0-5.7-4.9-10.3-10.8-10.3c-2.8,0-5.4,1-7.3,2.7
					C429.3,269.5,435.5,274,439.4,279.9z"/>
			</g>
		</g>
		<rect x="505.6" y="423.4" class="st5" width="10.6" height="219.6"/>
		<g>
			<polygon class="st9" points="129.5,576.1 123.2,598.6 109.6,594.7 116.6,571.8 			"/>
			<path class="st7" d="M63.8,473.3L132,486c2,0.6,2.8,3,1.5,4.6c-5.5,7.1-17,28.2-23.4,87.1l18.6,4.6l42.5-104.9l3.3-25.2
				L63.8,473.3z"/>
			<g>
				<path class="st11" d="M226.8,530.9c4.8,2.9,10.7,7.1,16.6,12.9c4.8,4.8,8.5,9.5,11.3,13.6c3.5,3.6,3.8,9.2,0.8,12.8
					c-3.5,4.2-9.8,4.6-13.8,0.9c-4.7-3.1-10.1-7.2-15.5-12.6c-4-4-7.3-7.9-10-11.5c-0.4-0.4-1.2-1.3-1.7-2.7c-0.3-1-0.3-2.1,0-3.2
					l2.4-9.1L226.8,530.9z"/>
				<path class="st9" d="M222.8,523.9l7.1,10.3c1,1.4,1.3,3.3,0.9,5l0,0c-0.9,3.4-4.5,5.3-7.8,4.2l-1.4-0.5c-1.5-0.5-2.8-1.6-3.5-3
					l-6.2-12.1L222.8,523.9z"/>
				<path class="st6" d="M48.4,423.9c0,0-18.1,30.1-4,52.2C58.6,498.3,153.8,462,153.8,462s46,66.8,57.1,71.3c0,0,13.7,0,16.4-7.1
					c0,0-37.2-89-66.4-93.4L89.6,435L48.4,423.9z"/>
			</g>
			<g>
				<polygon class="st4" points="44.7,642.1 29.6,642.1 47.3,490.8 62.4,490.8 				"/>
				<polygon class="st4" points="129.6,642.1 144.7,642.1 127,490.8 111.9,490.8 				"/>
				<rect x="78.1" y="489.4" class="st19" width="14.6" height="152"/>
				<path class="st5" d="M136.1,499.2H42.2c-5.1,0-9.3-4.7-9.3-10.4l0,0c0-5.7,4.2-10.4,9.3-10.4h93.8c5.1,0,9.3,4.7,9.3,10.4l0,0
					C145.3,494.5,141.2,499.2,136.1,499.2z"/>
			</g>
			<path class="st11" d="M146,612.9l-14.4-17.1c-0.4-1.5-0.9-3-1.5-4.4c-0.5-1.1-1.1-2.4-2.3-2.6c-1-0.2-2,0.7-2.5,1.6
				c-0.3,0.8-0.4,1.8-0.4,2.8c-7.7-0.2-14.6-7.2-14.6-7.2c-4.1,3.8-6,9.1-6.9,12.1c-0.4,1.4,0.2,2.9,1.3,3.6l41.1,25.6l1.6-2.5
				C149.2,620.9,148.6,616.1,146,612.9z"/>
		</g>
		<g>
			<polygon class="st16" points="235.4,354.7 246.7,356.6 225.5,413.7 213.5,413.4 			"/>
			<g>
				<path class="st18" d="M211.9,413.1c-7.7-18.6-25.1-15.1-34.9-11.3c-2.2,0.8-4.5,1.1-6.8,1c-3.5-0.2-7.1-0.2-10.6-0.3
					c-5.2-0.1-10.5,0-15.7,0.1c-5.2,0.1-10.4,0.3-15.6,0.6c-2.4,0.2-4.8,0.3-7.2,0.4c-1.3-2.4-2.6-4.7-3.8-7.1
					c-2.2-4.4-4.3-8.9-6.2-13.4c-1.9-4.5-3.7-9.1-5.3-13.7c-1.7-4.6-3.1-9.3-4.6-14l0-0.1c-2-6.5-9.1-10.5-16-8.4
					c-6.2,1.9-9.8,8.4-8.7,14.7c1,5.5,2.4,10.9,4.1,16.3c1.8,5.4,3.8,10.8,6.2,16c2.3,5.2,5,10.3,8,15.2c2.9,4.9,6.2,9.6,9.6,14.2
					l0.6,0.8c2.5,3.3,6.7,5.2,11.1,4.4c5.1-0.9,10.2-2,15.3-3c5.1-1.1,10.2-2.2,15.3-3.4c5.1-1.2,10.1-2.5,15.2-3.9
					c3.6-1,7.3-2.1,10.9-3.2L211.9,413.1z"/>
				<path class="st3" d="M104,349.3l8.4,19.9c3.7,8.8,1.7,19-5.2,25.7l-10.5,10.2l-6.2,30.3c0,0-24.3,5.5-48.2-8.4
					c0,0,12.6-26.6,12-48.5c-0.7-21.9,8.6-47.8,33.9-40.5L104,349.3z"/>
				<path class="st9" d="M86.4,338.4c0,0,5.6,13.3,14.3,15.3l0.9-17.4c0.2-4.8,5-8.2,9.6-6.8l2.3,0.7c4.3,1.3,8.9-0.8,10.8-4.9
					l2.3-5c1.1-2.4,3.4-4,6-4.2l0,0c1.8-0.2,3-1.9,2.7-3.6l-1.3-5.6l4.9-11c1.5-3.3,1.6-7.1,0.3-10.5c-2.9-7.7-10.2-20.1-26.5-19.6
					c-23.3,0.7-28.9,10.6-33.9,39.5L86.4,338.4z"/>
				<g>
					<linearGradient id="SVGID_2_" gradientUnits="userSpaceOnUse" x1="5" y1="326.7212" x2="143.052" y2="326.7212">
						<stop  offset="0" style="stop-color:#212852"/>
						<stop  offset="1" style="stop-color:#333961"/>
					</linearGradient>
					<path class="st20" d="M121.6,259.3c-10.6-3.4-22.7-1.4-31.6,5.1c-12.5,9.2-18.9,26.5-33.5,31.8c-10.3,3.7-24.9-2.4-31.1,9.9
						c-2,3.9-2.5,8.4-2.9,12.8c-0.5,4.4-1,8.9-3.1,12.7c-2.8,5.1-8.1,8.4-10.9,13.5c-3.1,5.6-3.8,13.8-3.2,20
						C7.5,386.3,29.6,404,50,391.8c9.1-5.5,2.3-19.2,4.8-27.8c1.6-5.6,3.1-10.7,6.2-15.6c3.1-4.9,7.8-9.2,13.5-10.1
						c5.7-0.9,12.1,1.6,17-1.4c5.5-3.3,5.7-11,4.8-17.4c-0.8-6.3-1.7-13.7,2.9-18.2c2.8-2.8,7-3.6,11-3.5c4,0,7.9,0.7,11.8,0.2
						c5.9-0.7,13.9-3.4,17.3-8.2c0.7-1,2.2-3.1,2.8-4.6c2.4-6.1-1.4-13-6.1-17.6C132.3,263.8,126.7,260.9,121.6,259.3z"/>
				</g>
				<rect x="169.2" y="404.4" class="st10" width="54.4" height="9.3"/>
				<path class="st9" d="M199.6,414.4c-7.7-18.6-25.1-15.1-34.9-11.3c-2.2,0.8-4.5,1.1-6.8,1c-3.5-0.2-7.1-0.2-10.6-0.3
					c-5.2-0.1-10.5,0-15.7,0.1c-5.2,0.1-10.4,0.3-15.6,0.6c-2.4,0.2-4.8,0.3-7.2,0.4c-1.3-2.4-2.6-4.7-3.8-7.1
					c-2.2-4.4-4.3-8.9-6.2-13.4c-1.9-4.5-3.7-9.1-5.3-13.7c-1.7-4.6-3.1-9.3-4.6-14l0-0.1c-2-6.5-9.1-10.5-16-8.4
					c-6.2,1.9-9.8,8.4-8.7,14.7c1,5.5,2.4,10.9,4.1,16.3c1.8,5.4,3.8,10.8,6.2,16c2.3,5.2,5,10.3,8,15.2c2.9,4.9,6.2,9.6,9.6,14.2
					l0.6,0.8c2.5,3.3,6.7,5.2,11.1,4.4c5.1-0.9,10.2-2,15.3-3c5.1-1.1,10.2-2.2,15.3-3.4c5.1-1.2,10.1-2.5,15.2-3.9
					c3.6-1,7.3-2.1,10.9-3.2L199.6,414.4z"/>
			</g>
		</g>
		<g>
			<g>
				<g>
					<polygon class="st9" points="282.7,608 273.8,622.3 285.4,630.3 294.8,615.9 					"/>
					<path class="st11" d="M276.4,622.2c0,0-13-11.2-34.3-8.5c-2.3,0.3-3,3.3-1,4.6l39.6,24.9c0,0,9-11.3,5.7-15.6
						C286.3,627.5,279.2,629.6,276.4,622.2z"/>
				</g>
				<path class="st7" d="M358.2,466.5l-81.8,145.9c5.2,4.9,10.8,9.3,16.6,13.4l49.8-74.8c9.2-6.1,18.9-12.1,18.9-12.1
					c19.1-12.5,58.4-53.5,58.4-53.5L358.2,466.5z"/>
			</g>
			<g>
				<polygon class="st9" points="360,611.5 364.2,632.7 378.1,632.7 373.8,610 				"/>
				<path class="st6" d="M452.3,440.2l-114.6,0.4c-16.5,0.1-28.5,15.6-24.4,31.6l41.6,142.9h21.9l-7.9-70c-0.2-1.4-0.1-2.8,0.2-4.2
					c6.8-32.5-13.8-51.6-13.8-51.6c11.8,5,30.8,7.3,48.9,8.3c25.9,1.4,47.8-19,48.7-44.9L452.3,440.2z"/>
				<path class="st11" d="M366.2,629.6c0,0-18.5-2-35.5,13.9c-1.4,1.4-0.4,3.8,1.6,3.7l49.9-2.1c0,0,1-15-4.4-16.8
					C377.9,628.4,373,634.3,366.2,629.6z"/>
			</g>
		</g>
		<rect x="163.9" y="423.4" class="st5" width="10.6" height="219.6"/>
	</g>
</g>
<path class="st14" d="M239,249h-9.4v-9.4c0-2.7-2.2-4.9-4.9-4.9c-2.7,0-4.9,2.2-4.9,4.9v9.4h-9.4c-2.7,0-4.9,2.2-4.9,4.9
	c0,2.7,2.2,4.9,4.9,4.9h9.4v9.4c0,2.7,2.2,4.9,4.9,4.9c2.7,0,4.9-2.2,4.9-4.9v-9.4h9.4c2.7,0,4.9-2.2,4.9-4.9
	C243.8,251.2,241.7,249,239,249z"/>
<g>
	<g>
		<g>
			<linearGradient id="SVGID_3_" gradientUnits="userSpaceOnUse" x1="576.2742" y1="194.1487" x2="669.9137" y2="194.1487">
				<stop  offset="0" style="stop-color:#333961"/>
				<stop  offset="1" style="stop-color:#212852"/>
			</linearGradient>
			<path class="st21" d="M651,219l12.1,1.4l5.2-10.5l-8.5-8.8l0.6-9.2l9.6-7.6l-3.7-11.1l-12.2-0.2l-6.1-6.9l1.4-12.1l-10.5-5.2
				l-8.8,8.5l-9.2-0.6l-7.6-9.6l-11.1,3.7l-0.2,12.2l-6.9,6.1l-12.1-1.4l-5.2,10.5l8.5,8.8l-0.6,9.2l-9.6,7.6l3.7,11.1l12.2,0.2
				l6.1,6.9l-1.4,12.1l10.5,5.2l8.8-8.5l9.2,0.6l7.6,9.6l11.1-3.7L644,225L651,219z M639.7,213.1c-10.5,9.2-26.4,8.1-35.6-2.3
				c-9.2-10.5-8.1-26.4,2.3-35.6c10.5-9.2,26.4-8.1,35.6,2.3C651.2,188,650.2,203.9,639.7,213.1z"/>
		</g>
	</g>
	<g>
		<g>
			<linearGradient id="SVGID_4_" gradientUnits="userSpaceOnUse" x1="476.9117" y1="160.9902" x2="570.5511" y2="160.9902">
				<stop  offset="0" style="stop-color:#333961"/>
				<stop  offset="1" style="stop-color:#212852"/>
			</linearGradient>
			<path class="st22" d="M551.6,185.8l12.1,1.4l5.2-10.5l-8.5-8.8l0.6-9.2l9.6-7.6l-3.7-11.1l-12.2-0.2l-6.1-6.9L550,121l-10.5-5.2
				l-8.8,8.5l-9.2-0.6l-7.6-9.6l-11.1,3.7l-0.2,12.2l-6.9,6.1l-12.1-1.4l-5.2,10.5l8.5,8.8l-0.6,9.2l-9.6,7.6l3.7,11.1l12.2,0.2
				l6.1,6.9l-1.4,12.1l10.5,5.2l8.8-8.5l9.2,0.6l7.6,9.6l11.1-3.7l0.2-12.2L551.6,185.8z M540.3,180c-10.5,9.2-26.4,8.1-35.6-2.3
				c-9.2-10.5-8.1-26.4,2.3-35.6c10.5-9.2,26.4-8.1,35.6,2.3C551.9,154.8,550.8,170.8,540.3,180z"/>
		</g>
	</g>
</g>
<circle class="st3" cx="329.1" cy="102.8" r="77.2"/>
<g>
	<g>
		<path class="st8" d="M264.2,103.7c0-36.1,29.3-65.3,65.3-65.3c36.1,0,65.3,29.3,65.3,65.3c0,33-24.4,60.3-56.2,64.7V153
			c23.3-4.3,41-24.7,41-49.3c0-27.7-22.5-50.1-50.1-50.1c-27.7,0-50.1,22.5-50.1,50.1c0,23.9,16.8,44,39.2,49v15.5
			C287.7,162.9,264.2,136,264.2,103.7z"/>
		
			<rect x="302.3" y="152.7" transform="matrix(-1 -1.224647e-16 1.224647e-16 -1 620.7328 384.4849)" class="st8" width="16.2" height="79.1"/>
		
			<rect x="324.4" y="193.9" transform="matrix(-1.836970e-16 1 -1 -1.836970e-16 556.6694 -108.3238)" class="st8" width="16.2" height="60.5"/>
		<rect x="346.5" y="192.6" class="st8" width="16.2" height="16.2"/>
		<path class="st8" d="M387.3,163c14.4-13.8,23.9-32.7,25.5-53.8h12.9c-1.7,24.6-12.6,46.7-29.3,62.9L387.3,163z"/>
		<path class="st8" d="M302.3,181.6c5.2,1.8,10.6,3.1,16.2,3.8v12.9c-5.6-0.6-11-1.7-16.2-3.3V181.6z"/>
		<path class="st8" d="M233.1,102.5c0-53.3,43.2-96.4,96.4-96.4c50.7,0,92.2,39.1,96.1,88.8h-12.9c-3.9-42.6-39.7-75.9-83.2-75.9
			c-46.2,0-83.6,37.4-83.6,83.6c0,33.9,20.2,63.1,49.2,76.2v13.9C258.9,178.8,233.1,143.7,233.1,102.5z"/>
		<path class="st8" d="M346.5,197.5v-13.1c10.6-2.2,20.5-6.4,29.3-12.2l9.2,9.2C373.7,189.4,360.6,195,346.5,197.5z"/>
	</g>
	<polygon class="st8" points="313.8,242.5 313.8,239.7 351.2,239.7 351.2,242.3 339.9,253.6 324.9,253.6 	"/>
</g>
<circle class="st8" cx="330.2" cy="104.2" r="16.4"/>
</svg>
