<?xml version="1.0" encoding="utf-8"?>
<!-- Generator: Adobe Illustrator 22.1.0, SVG Export Plug-In . SVG Version: 6.00 Build 0)  -->
<svg version="1.1" id="Layer_1" xmlns="http://www.w3.org/2000/svg" xmlns:xlink="http://www.w3.org/1999/xlink" x="0px" y="0px"
	 viewBox="0 0 400 400" style="enable-background:new 0 0 400 400;" xml:space="preserve">
<style type="text/css">
	.st0{opacity:0.42;fill:url(#SVGID_1_);}
	.st1{opacity:0.43;fill:#CEE5ED;}
	.st2{fill:#FADD74;}
	.st3{fill:#FFFFFF;}
	.st4{fill:#DADADA;}
	.st5{fill:#E6332A;}
	.st6{fill:#00DDFE;}
	.st7{fill:#34525C;}
	.st8{fill:#E8E8E8;}
	.st9{fill:#F2BF75;}
	.st10{fill:#F5D609;}
	.st11{fill:#1D1852;}
	.st12{fill:#4C4C4C;}
	.st13{fill:#FFAE41;}
	.st14{fill:#EFDB78;}
	.st15{fill:#F9B233;}
	.st16{fill:#1D1851;}
</style>
<g>
	<g>
		<linearGradient id="SVGID_1_" gradientUnits="userSpaceOnUse" x1="200.4716" y1="324.8939" x2="200.4716" y2="-64.8338">
			<stop  offset="0" style="stop-color:#FFFFFF"/>
			<stop  offset="9.162324e-02" style="stop-color:#FFFEF8"/>
			<stop  offset="0.2223" style="stop-color:#FEFBE6"/>
			<stop  offset="0.3764" style="stop-color:#FCF5C7"/>
			<stop  offset="0.5485" style="stop-color:#FAEE9C"/>
			<stop  offset="0.7354" style="stop-color:#F7E465"/>
			<stop  offset="0.9318" style="stop-color:#F4D823"/>
			<stop  offset="1" style="stop-color:#F3D40A"/>
		</linearGradient>
		<path class="st0" d="M91.5,351.8h218c48.6-33.5,80.3-88.7,80.3-151.2C389.8,98.4,305,0.9,200.5,0.9C95.9,0.9,11.1,98.4,11.1,200.5
			C11.1,263.1,42.9,318.3,91.5,351.8z"/>
		<ellipse class="st1" cx="200.5" cy="352.3" rx="199.5" ry="7.9"/>
	</g>
	<g>
		<path id="XMLID_142_" class="st2" d="M319.4,243.3H82.6c-5.7,0-10.3-4.6-10.3-10.3V92.1c0-5.7,4.6-10.3,10.3-10.3h236.8
			c5.7,0,10.3,4.6,10.3,10.3V233C329.8,238.7,325.1,243.3,319.4,243.3z"/>
		<path id="XMLID_140_" class="st3" d="M158.1,243.3H78.2c-3.3,0-5.9-2.6-5.9-5.9V96.9h85.8V243.3z"/>
		<path id="XMLID_138_" class="st3" d="M319.9,243.3h-75.9V96.9h85.8v136.5C329.8,238.9,325.3,243.3,319.9,243.3z"/>
		<g id="XMLID_125_">
			<path id="XMLID_137_" class="st4" d="M150.7,214.9L93.2,231c-1.9,0.5-3.9-0.6-4.5-2.5L79,193.6c-0.5-1.9,0.6-3.9,2.5-4.5L139,173
				c1.9-0.5,3.9,0.6,4.5,2.5l9.8,34.9C153.8,212.4,152.6,214.4,150.7,214.9z"/>
			
				<rect id="XMLID_136_" x="88.2" y="205" transform="matrix(0.9629 -0.2698 0.2698 0.9629 -52.0095 36.2713)" class="st5" width="35.5" height="4.7"/>
			
				<rect id="XMLID_134_" x="91.7" y="216.1" transform="matrix(0.9629 -0.2698 0.2698 0.9629 -54.5166 40.2452)" class="st2" width="55" height="4.7"/>
			
				<rect id="XMLID_132_" x="90.2" y="212.7" transform="matrix(0.9629 -0.2698 0.2698 0.9629 -54.0997 36.4697)" class="st3" width="30.8" height="4.7"/>
			
				<rect id="XMLID_130_" x="84.8" y="190.3" transform="matrix(0.9629 -0.2698 0.2698 0.9629 -49.9343 32.5111)" class="st6" width="16.9" height="15.2"/>
			
				<rect id="XMLID_128_" x="104.3" y="184.9" transform="matrix(0.9629 -0.2698 0.2698 0.9629 -47.7465 37.5479)" class="st2" width="16.9" height="15.2"/>
			
				<rect id="XMLID_126_" x="123.7" y="179.4" transform="matrix(0.9629 -0.2698 0.2698 0.9629 -45.5587 42.5846)" class="st7" width="16.9" height="15.2"/>
		</g>
		<g id="XMLID_109_">
			<path id="XMLID_124_" class="st4" d="M313.1,153.4l-59-9.3c-2-0.3-3.3-2.2-3-4.1l5.7-35.8c0.3-2,2.2-3.3,4.1-3l59,9.3
				c2,0.3,3.3,2.2,3,4.1l-5.7,35.8C316.9,152.4,315,153.7,313.1,153.4z"/>
			
				<rect id="XMLID_123_" x="257.7" y="125.5" transform="matrix(0.9877 0.1561 -0.1561 0.9877 23.3328 -41.4408)" class="st5" width="35.5" height="4.7"/>
			
				<rect id="XMLID_121_" x="255.4" y="141.1" transform="matrix(0.9877 0.1561 -0.1561 0.9877 25.8581 -42.4002)" class="st2" width="55" height="4.7"/>
			
				<rect id="XMLID_118_" x="256.6" y="132.4" transform="matrix(0.9877 0.1561 -0.1561 0.9877 24.3617 -40.8096)" class="st3" width="30.8" height="4.7"/>
			
				<rect id="XMLID_114_" x="259.5" y="106.4" transform="matrix(0.9877 0.1561 -0.1561 0.9877 21.0799 -40.4303)" class="st6" width="16.9" height="15.2"/>
			
				<rect id="XMLID_112_" x="279.4" y="109.5" transform="matrix(0.9877 0.1561 -0.1561 0.9877 21.8153 -43.5005)" class="st2" width="16.9" height="15.2"/>
			
				<rect id="XMLID_110_" x="299.3" y="112.7" transform="matrix(0.9877 0.1561 -0.1561 0.9877 22.5507 -46.5708)" class="st7" width="16.9" height="15.2"/>
		</g>
		<g id="XMLID_104_">
			<g id="XMLID_105_">
				<g id="XMLID_106_">
					<path id="XMLID_107_" class="st8" d="M315.5,241.9h-59.2c-2,0-3.6-1.6-3.6-3.6l0-74.3c0-2,1.6-3.6,3.6-3.6l59.2,0
						c2,0,3.6,1.6,3.6,3.6l0,74.3C319.1,240.3,317.5,241.9,315.5,241.9z"/>
				</g>
			</g>
		</g>
		<g id="XMLID_55_">
			<g id="XMLID_99_">
				<g id="XMLID_101_">
					<polygon id="XMLID_103_" class="st9" points="210.3,333.9 209.1,341.5 201.1,341.2 202.6,332.1 					"/>
					<polygon id="XMLID_102_" class="st10" points="209.6,341.5 211,336.9 201.1,337 200.3,341.2 					"/>
				</g>
				<path id="XMLID_100_" class="st11" d="M210.7,341.5l2.5,10.7l10.4,3.7c1.9,0.5,1.6,3.3-0.4,3.3l-13,0.3l-7.7-4.2l-2.1,1.6
					l-6.2-2.4l5.5-13.9L210.7,341.5z"/>
			</g>
			<g id="XMLID_94_">
				<g id="XMLID_96_">
					<polygon id="XMLID_98_" class="st9" points="173.2,332.8 172.6,340.4 180.4,342.1 181.1,332.9 					"/>
					<polygon id="XMLID_97_" class="st10" points="172.1,340.3 171.8,335.5 181.4,337.9 181.1,342.3 					"/>
				</g>
				<path id="XMLID_95_" class="st11" d="M171,340.1l-2.9,8.8l-14,5.5c-2,0-2.3,2.8-0.4,3.3h13.4l8.5-2.1l1.6,2.1l6.6-0.8l-2-14.8
					L171,340.1z"/>
			</g>
			<path id="XMLID_93_" class="st9" d="M199.6,138.8l-0.4,3.7c-0.3,3.6-2.8,6.6-6.3,7.7l-1.6,0.5H219l-3.6-0.1
				c-3.6-1.5-5.9-5.1-5.5-9l0.4-4.4L199.6,138.8z"/>
			<path id="XMLID_92_" class="st11" d="M220,238.4l-7,95.4h-10.9l-2.2-77.6l-10.3,32.3l-7.9,45.3h-12.2l6.6-51.9l3.7-46l0,0
				c12.3-3.8,25.5-3.3,37.5,1.4L220,238.4z"/>
			<path id="XMLID_90_" class="st12" d="M182,103.5c0,0,3.6,25.8,12.1,33.2c8.4,7.4,22.6,0.1,23.8-5.4c1.3-5.5-2.9-31-2.9-31
				L182,103.5z"/>
			<g id="XMLID_84_">
				<path id="XMLID_89_" class="st9" d="M218.1,125.5c0.3-0.1,0.6-0.2,0.9-0.4c3.5-1.7,2.7-5,1-8.4c-1.1-2.3-1.1-4.6-3.4-4.8
					L218.1,125.5z"/>
				<path id="XMLID_87_" class="st12" d="M187.8,111.7c-4.1-1.3-6.6-5.5-5.7-9.7c0.8-3.5,1.8-9.1,7.5-11.8
					c10.5-4.8,14.5-2.1,17.9-2.1c3.4,0,5.3-2.1,7.2-3.1c4.6-2.4,8.8,1.7,10.2,3.9s2.4,12.5-3.3,16.7c-5.7,4.2-16.6,9.2-26.7,7.6
					C191.7,112.7,189.4,112.2,187.8,111.7z"/>
				<path id="XMLID_86_" class="st9" d="M189.8,131.2c-0.3,0-0.7,0.1-1,0.1c-4.1,0-4.6-2.8-4.6-6.9c0-2.7-1.5-5.6,0.7-6.9
					L189.8,131.2z"/>
				<path id="XMLID_85_" class="st13" d="M186.5,131.1"/>
			</g>
			<polygon id="XMLID_83_" class="st9" points="226.7,136.4 235.1,123.3 234.1,88.6 239.5,87.6 243.4,123.7 236.7,144.6 			"/>
			<polygon id="XMLID_82_" class="st9" points="176.9,137.8 168.5,124.7 169.5,90 164.1,89 160.2,125 166.9,146 			"/>
			<g id="XMLID_77_">
				<g>
					<path id="XMLID_15_" class="st10" d="M225.9,177.3l-41-5.2l-7.6,67.6l1.4,0.1c0.8-2,2.6-3.5,5.2-3.8c1-0.7,2.3-1.2,3.9-1.1
						c2.1,0.1,3.7-1.4,6-1.4c2,0,4.1,0.1,6.2,0.2c4.4,0.1,9,1.2,13.2,2.5c0.7,0.2,1.3,0.5,1.8,0.8c0.1,0,0.3,0,0.4,0
						c4.1-0.4,6.2,2.4,6.3,5.6l8.7,0.6L225.9,177.3z"/>
				</g>
			</g>
			<path id="XMLID_75_" class="st10" d="M166,146l17.7,37.3l42.9,3.1l12.2-43.2L226,133l-7,11.5c-2.1,3.5-5.9,5.6-10,5.6h-12.2
				c-2.6,0-5.2-0.9-7.3-2.5l-12.1-11.6L166,146z"/>
			<path id="XMLID_68_" class="st14" d="M177.3,239.7c0,0,5.2-9.5,27.9-5.3c22.7,4.2,26,6,25.3,8.7c-0.7,2.7-11.1,3.3-11.1,3.3
				l0.5-6.9l0,0l0,0c-11.8-7.1-26.3-7.8-38.9-2.1l-1.4,0.6l-0.5,4.1C179.2,242.2,177.5,241.5,177.3,239.7z"/>
			<g id="XMLID_62_">
				<path id="XMLID_67_" class="st11" d="M246.1,78.2l-89.6,5.9c-2,0.1-3.7-1.4-3.9-3.4l-1.9-28.4c-0.1-2,1.4-3.7,3.4-3.9l89.6-5.9
					c2-0.1,3.7,1.4,3.9,3.4l1.9,28.4C249.6,76.3,248.1,78.1,246.1,78.2z"/>
				
					<rect id="XMLID_64_" x="161.2" y="52.8" transform="matrix(0.9979 -6.552237e-02 6.552237e-02 0.9979 -3.2451 13.2052)" class="st3" width="77.1" height="6.6"/>
				
					<rect id="XMLID_63_" x="162" y="66" transform="matrix(0.9979 -6.552295e-02 6.552295e-02 0.9979 -4.1374 12.3579)" class="st3" width="48.7" height="6.6"/>
			</g>
			<path id="XMLID_57_" class="st9" d="M231.6,80.3c0,0-3.2-11.5-3-12.8c0.2-1.3,1.8-1.1,2.4,1.3c0.6,2.5,3,9.8,3,9.8
				s-2.4-12.2-1.9-12.9c0.6-0.7,1.8-0.5,1.9,1.2c0.2,1.7,2.2,9.8,2.2,9.8s-0.6-7.2-0.2-8.8c0.3-1.6,1.6,0.3,1.6,1.9
				c0,1.6,0.6,7.7,0.6,7.7s1.2-5.5,1.9-6.1c0.7-0.6,1.1,0,1.1,0.7c0,0.7-1.5,7-1.5,7s-0.2,1.9-0.3,9c-0.1,4-4.5,2.5-4.9,2
				c-0.4-0.5-7-9-7.5-10.6l3.1-0.2C231.6,81.6,231.7,80.9,231.6,80.3z"/>
			<path id="XMLID_56_" class="st9" d="M171.9,82.7c0,0,3.2-11.5,3-12.8c-0.2-1.3-1.8-1.1-2.4,1.3c-0.6,2.5-3,9.8-3,9.8
				s2.4-12.2,1.9-12.9c-0.6-0.7-1.8-0.5-1.9,1.2c-0.2,1.7-2.2,9.8-2.2,9.8s0.6-7.2,0.2-8.8c-0.3-1.6-1.6,0.3-1.6,1.9
				c0,1.6-0.6,7.7-0.6,7.7s-1.2-5.5-1.9-6.1c-0.7-0.6-1.1,0-1.1,0.7c0,0.7,1.5,7,1.5,7s0.2,1.9,0.3,9c0.1,4,4.5,2.5,4.9,2
				c0.4-0.5,6.4-8,6.9-9.6l-3.5,0.2C172.1,83.4,171.8,83.3,171.9,82.7z"/>
		</g>
		<g id="XMLID_1_">
			<g id="XMLID_2_">
				<path id="XMLID_44_" class="st2" d="M145.1,163.2L85.3,163c-2,0-3.6-1.6-3.6-3.6l0.1-48.1c0-2,1.6-3.6,3.6-3.6l59.7,0.1
					c2,0,3.6,1.6,3.6,3.6l-0.1,48.1C148.7,161.5,147.1,163.2,145.1,163.2z"/>
				
					<rect id="XMLID_35_" x="86.8" y="115.5" transform="matrix(1 2.225503e-03 -2.225503e-03 1 0.2626 -0.2542)" class="st15" width="55" height="4.7"/>
				
					<rect id="XMLID_34_" x="86.8" y="124.3" transform="matrix(1 2.227227e-03 -2.227227e-03 1 0.2824 -0.2543)" class="st3" width="55" height="4.7"/>
				
					<rect id="XMLID_33_" x="86.8" y="133.1" transform="matrix(1 2.228009e-03 -2.228009e-03 1 0.3019 -0.219)" class="st3" width="23.3" height="4.7"/>
				
					<rect id="XMLID_32_" x="86.8" y="141.9" transform="matrix(1 2.227227e-03 -2.227227e-03 1 0.3216 -0.2542)" class="st3" width="55" height="4.7"/>
				
					<rect id="XMLID_29_" x="86.8" y="150.7" transform="matrix(1 2.227227e-03 -2.227227e-03 1 0.3411 -0.2541)" class="st3" width="55" height="4.7"/>
			</g>
		</g>
	</g>
	<g>
		<circle class="st10" cx="286.1" cy="195.3" r="18.9"/>
		<g>
			<g>
				<path class="st16" d="M270.2,195.5c0-8.8,7.2-16,16-16c8.8,0,16,7.2,16,16c0,8.1-6,14.7-13.8,15.8l0-3.8c5.7-1,10.1-6,10.1-12
					c0-6.8-5.5-12.3-12.2-12.3c-6.8,0-12.3,5.5-12.3,12.2c0,5.9,4.1,10.8,9.6,12l0,3.8C276,210,270.2,203.4,270.2,195.5z"/>
				
					<rect x="279.5" y="207.5" transform="matrix(-1 -2.532737e-03 2.532737e-03 -1 562.4117 435.0375)" class="st16" width="4" height="19.4"/>
				
					<rect x="284.9" y="217.6" transform="matrix(-2.532737e-03 1 -1 -2.532737e-03 512.595 -61.3158)" class="st16" width="4" height="14.8"/>
				
					<rect x="290.3" y="217.3" transform="matrix(1 2.532737e-03 -2.532737e-03 1 0.5562 -0.7396)" class="st16" width="4" height="4"/>
				<path class="st16" d="M300.3,210c3.5-3.4,5.9-8,6.3-13.2l3.1,0c-0.4,6-3.1,11.4-7.2,15.4L300.3,210z"/>
				<path class="st16" d="M279.5,214.6c1.3,0.4,2.6,0.8,4,0.9l0,3.2c-1.4-0.2-2.7-0.4-4-0.8L279.5,214.6z"/>
				<path class="st16" d="M262.6,195.2c0-13,10.6-23.6,23.7-23.5c12.4,0,22.5,9.6,23.5,21.8l-3.1,0c-0.9-10.4-9.7-18.6-20.3-18.6
					c-11.3,0-20.5,9.1-20.5,20.4c0,8.3,4.9,15.5,12,18.7l0,3.4C268.9,213.8,262.6,205.2,262.6,195.2z"/>
				<path class="st16" d="M290.3,218.5l0-3.2c2.6-0.5,5-1.6,7.2-3l2.3,2.3C297,216.5,293.8,217.9,290.3,218.5z"/>
			</g>
			<polygon class="st16" points="282.3,229.5 282.3,228.8 291.4,228.8 291.4,229.4 288.7,232.2 285,232.2 			"/>
		</g>
		<circle class="st16" cx="286.4" cy="195.6" r="4"/>
	</g>
</g>
</svg>
